<svg xmlns="http://www.w3.org/2000/svg" viewBox="0 0 381.26 106.03"><defs><style>.cls-1{fill:#f7b916;}.cls-2{fill:#1f3562;}.cls-3{fill:#1f3561;}</style></defs><title>Asset 2</title><g id="Layer_2" data-name="Layer 2"><g id="Layer_1-2" data-name="Layer 1"><g id="g5075"><path id="path5077" class="cls-1" d="M56.05,77.16,84.42,29.1c-.47-1.33-1-2.63-1.59-3.91L32.62,4,.49,50c.12.74.25,1.49.4,2.22Z"/></g><g id="g5007"><path id="path5009" class="cls-2" d="M180.13,82.92H168.47a.14.14,0,0,1-.11-.06L158.31,70.61,148.25,82.86a.14.14,0,0,1-.11.06H138.8a.17.17,0,0,1-.14-.09s0-.1,0-.15L153.49,64.5l-14.64-18a.17.17,0,0,1,0-.17.2.2,0,0,1,.12-.08h11.68a.13.13,0,0,1,.11.07l8.81,10.92,9-10.93a.11.11,0,0,1,.11-.06h9.51a.2.2,0,0,1,.13.08.15.15,0,0,1,0,.17L164.37,63.17l15.88,19.51a.12.12,0,0,1,0,.15.14.14,0,0,1-.13.09"/></g><g id="g5011"><path id="path5013" class="cls-2" d="M243.28,52.7c-5.16,0-8.69,3.13-9.71,8.59h17.58v-.36a8,8,0,0,0-7.87-8.23m16.93,14.18a.14.14,0,0,1-.13.06h-26.7c.56,6.21,4.6,9.76,11.13,9.76,4,0,8.3-1.38,14.34-4.59a.16.16,0,0,1,.22.15l0,8.2c0,.08,0,.12-.08.13-5.62,2.37-11.27,4-15.69,4-11.49,0-19.84-8.37-19.84-19.91s8.35-19.9,19.84-19.9c10.48,0,17.22,7.06,17.22,16.77,0,1.57-.28,5.23-.29,5.35"/></g><g id="g5015"><path id="path5017" class="cls-2" d="M314.45,38.67a5.89,5.89,0,0,1-5.94-5.84,5.94,5.94,0,1,1,11.87,0,5.89,5.89,0,0,1-5.93,5.84m-4.81,44.25a.14.14,0,0,1-.15-.16V46.39a.14.14,0,0,1,.12-.14h9.65a.14.14,0,0,1,.12.14V82.76a.15.15,0,0,1-.15.16Z"/></g><g id="g5019"><path id="path5021" class="cls-2" d="M197.78,77.44a20.91,20.91,0,0,1-5.56-.79V53.31a21.24,21.24,0,0,1,6.54-1.12c6.69,0,11.17,4.93,11.17,12.26,0,7.89-4.77,13-12.16,13m2.62-32.67a25.5,25.5,0,0,0-8.35,1.47h-9.6a.15.15,0,0,0-.14.15V106a22,22,0,0,0,9.92-3.88V84a43.36,43.36,0,0,0,6.19.56c13.15,0,21.66-7.88,21.66-20.06,0-11.62-8.1-19.74-19.67-19.74"/></g><g id="g5023"><path id="path5025" class="cls-2" d="M292.09,74.42a17.79,17.79,0,0,1-8.21,2.33c-5.95,0-9.52-4.2-9.52-11.25,0-8.14,4.55-13.41,11.59-13.41a14.49,14.49,0,0,1,6.14,1.51Zm0-47.43V46a27.64,27.64,0,0,0-7.8-1.18,19.63,19.63,0,0,0-20.07,20.07c0,11.38,7.62,19.65,18.09,19.65a23.32,23.32,0,0,0,11-3V84.9A22.07,22.07,0,0,0,302,81.21V23.1A21.34,21.34,0,0,0,292.09,27"/></g><g id="g5027"><path id="path5029" class="cls-2" d="M352.78,74.35a15.65,15.65,0,0,1-7.62,2.48c-6.38,0-10.19-4.19-10.19-11.26,0-8,4.49-13.4,11.18-13.4a14.81,14.81,0,0,1,6.63,2.09Zm9.92-28.54a.42.42,0,0,0-.42-.41l-7.79,0a.42.42,0,0,0-.42.42v1.31h-.2a23.86,23.86,0,0,0-9.69-2.31c-10.78,0-19.24,8.95-19.24,20.41s7.56,19.32,18.82,19.32c3,0,6.88-.2,10.48-4.36v4.67a22.32,22.32,0,0,0,8.44-3.68Z"/></g><g id="g5031"><path id="path5033" class="cls-2" d="M112.15,73.69H136.3a21.73,21.73,0,0,1-3.37,9.08H107.8a6,6,0,0,1-5.91-5.4.53.53,0,0,0,0-.12V29.62a.53.53,0,0,0,0-.12,6,6,0,0,1,5.91-5.41l.28,0h28.17a22.18,22.18,0,0,1-3.37,9.14H112.15v13h20.52a.15.15,0,0,1,.15.14v9a.15.15,0,0,1-.15.14H112.15V73.69Z"/></g><g id="g5035"><path id="path5037" class="cls-2" d="M180.14,82.91H168.47a.15.15,0,0,1-.11,0L158.31,70.6,148.26,82.87a.17.17,0,0,1-.12,0H138.8a.17.17,0,0,1-.14-.08.16.16,0,0,1,0-.15L153.49,64.5l-14.64-18a.16.16,0,0,1,0-.16.18.18,0,0,1,.13-.09h11.66a.17.17,0,0,1,.12.07l8.81,10.93,9-10.94a.17.17,0,0,1,.12-.06h9.51a.19.19,0,0,1,.14.09.16.16,0,0,1,0,.16L164.37,63.17l15.87,19.51a.11.11,0,0,1,0,.15.16.16,0,0,1-.13.08"/></g><g id="g5039"><path id="path5041" class="cls-2" d="M243.28,52.7c-5.16,0-8.7,3.13-9.71,8.59h17.58v-.36a8,8,0,0,0-7.87-8.23m16.93,14.18a.16.16,0,0,1-.13.06H233.39c.55,6.21,4.59,9.76,11.12,9.76,4,0,8.3-1.38,14.34-4.59.1-.06.22,0,.22.15l0,8.2c0,.07,0,.12-.08.13-5.62,2.37-11.27,4-15.69,4-11.5,0-19.83-8.37-19.83-19.91s8.33-19.9,19.83-19.9c10.49,0,17.22,7.05,17.22,16.77,0,1.57-.28,5.22-.29,5.35"/></g><g id="g5043"><path id="path5045" class="cls-2" d="M314.45,38.67a5.89,5.89,0,0,1-5.94-5.84,5.94,5.94,0,1,1,11.87,0,5.89,5.89,0,0,1-5.93,5.84m-4.81,44.24c-.09,0-.14,0-.14-.15V46.39a.13.13,0,0,1,.11-.14h9.65a.14.14,0,0,1,.12.14V82.76a.13.13,0,0,1-.14.15Z"/></g><g id="g5047"><path id="path5049" class="cls-2" d="M197.78,77.44a21,21,0,0,1-5.56-.79V53.31a21.05,21.05,0,0,1,6.55-1.12c6.68,0,11.17,4.93,11.17,12.26,0,7.89-4.77,13-12.17,13m2.62-32.68a25.52,25.52,0,0,0-8.35,1.48h-9.59a.14.14,0,0,0-.14.15V106a22.14,22.14,0,0,0,9.91-3.88V84a43.36,43.36,0,0,0,6.19.56c13.15,0,21.66-7.88,21.66-20.06,0-11.64-8.1-19.75-19.67-19.75"/></g><g id="g5051"><path id="path5053" class="cls-2" d="M292.09,74.42a17.76,17.76,0,0,1-8.21,2.33c-5.95,0-9.52-4.21-9.52-11.25,0-8.14,4.56-13.42,11.6-13.42a14.45,14.45,0,0,1,6.13,1.51Zm0-47.43V46a27.24,27.24,0,0,0-7.8-1.18,19.62,19.62,0,0,0-20.07,20.07c0,11.38,7.62,19.65,18.1,19.65a23.32,23.32,0,0,0,11-3V84.9A22.11,22.11,0,0,0,302,81.21V23.09a21.4,21.4,0,0,0-9.9,3.9"/></g><g id="g5055"><path id="path5057" class="cls-2" d="M352.78,74.34a15.57,15.57,0,0,1-7.62,2.49c-6.38,0-10.19-4.19-10.19-11.26,0-8,4.49-13.41,11.18-13.41a14.72,14.72,0,0,1,6.63,2.1Zm9.92-28.53a.42.42,0,0,0-.42-.41h-7.79a.42.42,0,0,0-.42.42v1.32h-.2a23.84,23.84,0,0,0-9.69-2.3c-10.78,0-19.24,8.94-19.24,20.4s7.56,19.32,18.82,19.32c3,0,6.88-.2,10.49-4.37v4.68a22.35,22.35,0,0,0,8.43-3.68Z"/></g><g id="g5059"><path id="path5061" class="cls-2" d="M112.15,73.69H136.3a21.73,21.73,0,0,1-3.37,9.08H107.8a6,6,0,0,1-5.91-5.4.53.53,0,0,0,0-.12V29.61a.45.45,0,0,0,0-.11,6,6,0,0,1,5.91-5.42l.28,0h28.17a22.08,22.08,0,0,1-3.37,9.14H112.15v13h20.52a.15.15,0,0,1,.15.14v9a.15.15,0,0,1-.15.14H112.15V73.69Z"/></g><g id="g5063"><path id="path5065" class="cls-2" d="M373,44.83h1.11c1.26,0,1.85-.35,1.85-1.21s-.63-1.27-1.93-1.27h-1Zm1.35-3.56c2.23,0,3.35.76,3.35,2.15a2.1,2.1,0,0,1-1.76,2.2l1.76,3.58h-1.9l-1.57-3.3H373v3.3h-1.71V41.27ZM370,41.05a6.14,6.14,0,0,0-1.82,4.31,6.06,6.06,0,0,0,5.93,6,6.17,6.17,0,0,0,4.37-1.76,5.76,5.76,0,0,0,1.76-4.18,6,6,0,0,0-6-6.13A5.77,5.77,0,0,0,370,41.05m9.27-.64a6.94,6.94,0,0,1,2,5,6.86,6.86,0,0,1-2.08,5,7.2,7.2,0,0,1-5,2.08,7.17,7.17,0,0,1-7.07-7.1,7.13,7.13,0,0,1,2.13-5,6.82,6.82,0,0,1,4.94-2,7,7,0,0,1,5.08,2.12"/></g><g id="g5067"><path id="path5069" class="cls-3" d="M50.81,33.37l-1.75-4.95L34.22,8.59l2.66-.67L62.47,30l15-4.31a22,22,0,0,1,5.31-.54A43.43,43.43,0,0,0,.49,50L36.55,37.44Z"/></g><g id="g5071"><path id="path5073" class="cls-3" d="M84.42,29.1a23.69,23.69,0,0,1-5.19,2.6L64.14,36,54.07,68.32l-2.61.85,2.13-24.68-1.2-5.13-14.13,4L.88,52.2A43.44,43.44,0,1,0,84.42,29.1"/></g><g id="g5079"><path id="path5081" class="cls-3" d="M82,83.67a3.86,3.86,0,0,1-3.87-4.14A3.86,3.86,0,1,1,82,83.67m0-8.76a4.47,4.47,0,0,0-4.54,4.62,4.53,4.53,0,1,0,9,0A4.47,4.47,0,0,0,82,74.91"/></g><g id="g5083"><path id="path5085" class="cls-3" d="M80.87,79.14V77.47H82c.57,0,1.25.08,1.25.78s-.63.89-1.33.89Zm3.23-.78c0-1.11-.68-1.57-2-1.57H80v5.46h.89V79.91h.85l1.41,2.34h1l-1.53-2.4a1.4,1.4,0,0,0,1.43-1.49"/></g></g></g></svg>