<?xml version="1.0" encoding="utf-8"?>
<!-- Generator: Adobe Illustrator 24.0.1, SVG Export Plug-In . SVG Version: 6.00 Build 0)  -->
<svg version="1.1" id="Layer_1" xmlns="http://www.w3.org/2000/svg" xmlns:xlink="http://www.w3.org/1999/xlink" x="0px" y="0px"
	 viewBox="0 0 310.06 310.06" style="enable-background:new 0 0 310.06 310.06;" xml:space="preserve">
<style type="text/css">
	.st0{opacity:0.25;fill:url(#XMLID_2_);}
	.st1{opacity:0.25;fill:url(#XMLID_3_);}
	.st2{fill:url(#XMLID_4_);}
	.st3{fill:#F9F9F9;}
	.st4{fill:#D2E1F8;}
	.st5{fill:url(#XMLID_5_);}
	.st6{fill:url(#XMLID_6_);}
	.st7{fill:#0C53BC;}
	.st8{fill:#F8F8FF;}
	.st9{fill:#FFFFFF;}
	.st10{fill:#1C67DA;}
	.st11{fill:#79A4E9;}
	.st12{fill:#FEAF84;}
	.st13{opacity:0.3;}
	.st14{opacity:0.45;fill:#B03D44;}
	.st15{fill:#0B0B3A;}
	.st16{fill:#3A3A3A;}
	.st17{fill:#F78E36;}
	.st18{fill:#A5C3F1;}
	.st19{fill:#FFC328;}
	.st20{fill:none;stroke:url(#SVGID_1_);stroke-width:3;stroke-miterlimit:10;}
</style>
<title>F1</title>
<g>
	<g id="XMLID_78_">
		
			<linearGradient id="XMLID_2_" gradientUnits="userSpaceOnUse" x1="162.5729" y1="261.3412" x2="162.5729" y2="51.737" gradientTransform="matrix(1 0 0 1 -7.5429 0.5785)">
			<stop  offset="0" style="stop-color:#D2E1F8"/>
			<stop  offset="1" style="stop-color:#A5C3F1"/>
		</linearGradient>
		<path id="XMLID_80_" class="st0" d="M283.25,139.34c-15.18-43.29-68.55-26.34-100.93-29.35c-34.87-3.24-17.54-25.55-63.03-42.76
			C77.58,51.44,13.36,100.21,25.1,174.97c14.5,92.27,154.01,106.06,211.7,69.7c40.42-25.47,49.1-66.08,49.55-84.72
			C286.52,152.95,285.57,145.94,283.25,139.34z"/>
		
			<linearGradient id="XMLID_3_" gradientUnits="userSpaceOnUse" x1="161.9908" y1="263.6183" x2="161.9908" y2="34.7854" gradientTransform="matrix(1 0 0 1 -7.5429 0.5785)">
			<stop  offset="0" style="stop-color:#D2E1F8"/>
			<stop  offset="1" style="stop-color:#A5C3F1"/>
		</linearGradient>
		<path id="XMLID_79_" class="st1" d="M250.39,63.93c-5.04-4.86-10.83-8.91-17.26-11.68c-42.13-18.16-65.8,32.59-89.95,54.38
			c-26,23.46-31.84,6.91-76.39,26.44c-44.55,19.53-54.06,109.59,23.17,127.56c105.56,24.55,167.5-45.36,182.82-105.79
			C284.71,107.79,263.81,76.88,250.39,63.93z"/>
	</g>
	<g>
		<g id="XMLID_353_">
			<g id="XMLID_356_">
				<linearGradient id="XMLID_4_" gradientUnits="userSpaceOnUse" x1="99.4402" y1="102.968" x2="227.1484" y2="102.968">
					<stop  offset="0" style="stop-color:#5E81F4"/>
					<stop  offset="1" style="stop-color:#1C67DA"/>
				</linearGradient>
				<rect id="XMLID_374_" x="99.44" y="57.7" class="st2" width="127.71" height="90.53"/>
				
					<rect id="XMLID_373_" x="121.57" y="42.66" transform="matrix(-1.836970e-16 1 -1 -1.836970e-16 266.2622 -60.3262)" class="st3" width="83.44" height="120.62"/>
				<rect id="XMLID_372_" x="102.98" y="61.25" class="st4" width="2.71" height="83.44"/>
				<rect id="XMLID_371_" x="102.98" y="61.25" class="st4" width="120.62" height="2.71"/>
				<linearGradient id="XMLID_5_" gradientUnits="userSpaceOnUse" x1="99.4402" y1="146.4616" x2="227.1484" y2="146.4616">
					<stop  offset="0" style="stop-color:#5E81F4"/>
					<stop  offset="1" style="stop-color:#1C67DA"/>
				</linearGradient>
				<polygon id="XMLID_368_" class="st5" points="102.98,144.69 99.44,148.23 227.15,148.23 223.61,144.69 				"/>
				<linearGradient id="XMLID_6_" gradientUnits="userSpaceOnUse" x1="99.4402" y1="59.4743" x2="227.1484" y2="59.4743">
					<stop  offset="0" style="stop-color:#5E81F4"/>
					<stop  offset="1" style="stop-color:#1C67DA"/>
				</linearGradient>
				<polygon id="XMLID_364_" class="st6" points="223.61,61.25 227.15,57.7 99.44,57.7 102.98,61.25 				"/>
				<rect id="XMLID_361_" x="96.93" y="148.23" class="st7" width="132.73" height="2.05"/>
				<rect id="XMLID_360_" x="117.62" y="145.35" class="st8" width="13.53" height="2.88"/>
				<g id="XMLID_358_">
					<path id="XMLID_359_" class="st8" d="M208.34,108.06c-0.01-0.02-0.03-0.03-0.04-0.04c0.01,0.01,0.01,0.02,0.02,0.04
						C208.32,108.05,208.33,108.05,208.34,108.06z"/>
				</g>
			</g>
		</g>
		<rect id="XMLID_77_" x="262.74" y="176" class="st9" width="7.05" height="77"/>
		<rect id="XMLID_170_" x="137.78" y="176" class="st9" width="7.05" height="77"/>
		<rect id="XMLID_169_" x="135.07" y="170.03" class="st9" width="137.43" height="5.97"/>
		<g>
			<path class="st10" d="M78.71,104.45c0.29,0.62,0.53,1.09,0.8,1.61c0.26,0.51,0.54,1.01,0.82,1.5c0.56,0.99,1.14,1.97,1.74,2.94
				c1.22,1.92,2.53,3.8,4,5.6c1.46,1.81,3.05,3.55,4.86,5.16c1.8,1.62,3.85,3.11,6.25,4.28l0.18,0.09c0.29,0.14,0.6,0.24,0.91,0.29
				c1.7,0.3,3.41,0.1,4.82-0.37c1.42-0.46,2.59-1.13,3.62-1.84c2.05-1.44,3.56-3.11,4.92-4.79c1.34-1.7,2.49-3.46,3.51-5.27
				c1.02-1.82,1.92-3.62,2.7-5.61c0.46-1.17-0.11-2.49-1.28-2.95c-0.97-0.38-2.04-0.05-2.64,0.73l-0.07,0.09
				c-1.11,1.45-2.31,2.99-3.53,4.4c-1.22,1.42-2.48,2.78-3.78,3.99c-1.28,1.21-2.66,2.27-3.93,2.95c-0.63,0.34-1.23,0.56-1.71,0.63
				c-0.48,0.08-0.79,0.04-1.01-0.05l1.09,0.38c-1.39-0.83-2.76-1.98-4.06-3.3c-1.3-1.32-2.53-2.81-3.7-4.38
				c-1.17-1.57-2.28-3.23-3.33-4.93c-0.53-0.85-1.05-1.71-1.54-2.58l-0.73-1.31c-0.23-0.42-0.49-0.9-0.67-1.24l-0.05-0.09
				c-1.16-2.24-3.91-3.11-6.15-1.96C78.55,99.58,77.67,102.24,78.71,104.45z"/>
			<path class="st11" d="M56.13,145.8l9.99,1.55l9.14,1.42l10.99,1.7c8.19,39.16,10.71,78.07,5.99,116.64l-5.48,1.26
				c1.9-27.23-5.85-94.3-12.36-95.31c-6.52-1.01-8.21,62.55-22.01,92.09l-5.16-0.8C57.89,232.3,63.9,195.72,56.13,145.8z"/>
			<path class="st11" d="M86.47,268.71c-0.11-0.09-0.16-0.22-0.15-0.36c2.03-29.23-6.15-93.94-11.99-94.84
				c-0.11-0.02-0.27-0.02-0.51,0.16c-2.39,1.75-4.31,14.49-6.53,29.24c-3.12,20.66-6.99,46.38-14.5,62.44
				c-0.08,0.18-0.27,0.28-0.46,0.25l-5.16-0.8c-0.13-0.02-0.24-0.09-0.31-0.2c-0.07-0.11-0.08-0.24-0.04-0.37
				c12.87-38.68,15.61-75.18,8.89-118.35c-0.02-0.14,0.02-0.28,0.12-0.38c0.1-0.1,0.24-0.14,0.38-0.12l30.12,4.67
				c0.18,0.03,0.32,0.16,0.36,0.34c8.49,40.6,10.51,79.89,5.99,116.78c-0.02,0.18-0.16,0.33-0.34,0.37l-5.48,1.26
				c-0.03,0.01-0.07,0.01-0.1,0.01C86.65,268.82,86.55,268.78,86.47,268.71z M85.88,150.86l-29.22-4.53
				c6.6,42.87,3.86,79.22-8.86,117.68l4.32,0.67c7.36-15.97,11.2-41.43,14.29-61.91c2.44-16.17,4.2-27.85,6.88-29.82
				c0.37-0.27,0.76-0.37,1.16-0.32c7.24,1.12,14.36,69.69,12.77,95.18l4.61-1.06C96.28,230.14,94.27,191.15,85.88,150.86z"/>
			<path class="st12" d="M115.76,105.04c0,0-0.37-5.76,0.77-6.48c1.14-0.72,1.1,1.98,2.09,1.77c0.99-0.2,3.53-3.71,4.57-3.27
				s1.48,3.21-0.13,5.06c-1.61,1.85-4.86,4.55-4.86,4.55L115.76,105.04z"/>
			<path class="st10" d="M51.83,101.74c-0.39-2.21,1.12-4.31,3.34-4.63l0.07-0.01c2.02-0.3,4.55-0.6,7.03-0.72
				c4.27-0.2,10.45-0.34,14.21,0c2.18,0.2,4.32,0.57,6.02,0.89c0.02,0,0.04,0.01,0.07,0.01c2.17,0.44,3.92,2.04,4.55,4.17
				c2.04,6.88,4.47,20.91,1.29,50.71H54.97c-0.24-2.99,0.43-12.7-0.06-25.08C54.53,117.66,52.86,107.5,51.83,101.74z"/>
			<path class="st13" d="M52.15,103.58c0.69,4,1.55,9.43,2.14,15.15c0,0,3.05-5.99,3.61-11.11
				C58.45,102.51,54.09,102.15,52.15,103.58z"/>
			<path class="st12" d="M75.81,96.33c-4.13-0.98-4.86-3.53-4.58-6.34c0.06-0.68,0.18-1.39,0.33-2.09l-5.18-4.3l-3.8-3.15
				c1.05,4.58,2.24,12.92-0.85,15.97c0,0,2.56,4.22,9.64,3.84C77.33,99.93,75.81,96.33,75.81,96.33z"/>
			<path class="st14" d="M71.56,87.9c-0.15,0.7-0.27,1.41-0.33,2.09c-1.93-0.39-4.51-2.45-4.78-4.42c-0.1-0.74-0.12-1.46-0.07-1.97
				L71.56,87.9z"/>
			<path class="st15" d="M74.33,65.95c2.81,1.65,2.36,5.91,3.13,8.93c-1.79,0.18-4.61-3-4.61-3l-1.68-4.83L74.33,65.95z"/>
			<path class="st12" d="M59.36,74.43c1.8,5.96,2.54,9.52,6.34,12.01c5.71,3.74,12.56-0.52,12.59-6.83
				c0.03-5.68-2.92-14.47-9.43-15.68C62.45,62.73,57.57,68.47,59.36,74.43z"/>
			<path class="st15" d="M64.98,79.49c-4.21-4.89,1.06-7.31-3.26-10.7c4.85,0.23,12.83-0.12,14.26-3.44
				c1.43-3.33-2.96-7.83-6.61-8.25c-4.25-0.49-3.3,4.73-3.3,4.73s-16.14-1.01-11.02,5.86c-3.88-0.23-2.81,6.04,3.94,11.34
				C60.68,79.63,64.98,79.49,64.98,79.49z"/>
			<path class="st15" d="M56.02,67.81c0,0-3.32-0.98-3.21-3.62C51.61,65.02,51.48,67.53,56.02,67.81z"/>
			<path class="st12" d="M58.38,80.65c1.07,1.32,2.56,2.11,3.83,2.34c1.91,0.35,2.36-1.42,1.41-3.15c-0.86-1.55-2.89-3.61-4.61-3.17
				C57.32,77.09,57.15,79.14,58.38,80.65z"/>
			<path class="st10" d="M51.51,99.34l-0.71,0.96l-0.63,0.9c-0.42,0.6-0.8,1.2-1.19,1.8c-0.77,1.2-1.49,2.42-2.2,3.65
				c-1.39,2.47-2.68,4.99-3.81,7.59c-0.59,1.29-1.1,2.62-1.64,3.93c-0.47,1.34-0.99,2.66-1.41,4.03c-0.92,2.69-1.58,5.49-2.19,8.29
				l-0.07,0.32c-0.26,1.19,0,2.38,0.61,3.32c1.06,1.64,2.35,3.18,3.84,4.55c1.47,1.38,3.21,2.53,5.04,3.4
				c1.85,0.86,3.82,1.4,5.79,1.6c0.98,0.1,1.97,0.12,2.95,0.05c0.49-0.04,0.98-0.09,1.47-0.17c0.25-0.04,0.49-0.09,0.74-0.15
				l0.85-0.21c0.21-0.05,0.34-0.26,0.29-0.47l-1.17-4.89c-0.01-0.04-0.22-0.05-0.35-0.08l-0.47-0.09c-0.32-0.06-0.63-0.14-0.95-0.23
				c-0.63-0.17-1.25-0.39-1.83-0.63c-1.18-0.5-2.25-1.12-3.19-1.88c-1.9-1.49-3.32-3.47-4.44-5.77l0.54,3.64
				c0.72-2.38,1.49-4.75,2.42-7.08c0.91-2.33,1.93-4.63,3.04-6.89c1.11-2.26,2.28-4.5,3.56-6.67c0.63-1.09,1.29-2.16,1.94-3.23
				l1-1.56l0.5-0.76l0.46-0.68l0.17-0.25c1.7-2.5,1.05-5.91-1.45-7.61C56.56,96.39,53.24,96.98,51.51,99.34z"/>
			<path class="st12" d="M62.68,142.68l1.82,2.97l-7.88-0.32c0,0-2.06-5.3,0.76-6.13l1.09,0.3C60.22,140,61.73,141.13,62.68,142.68z
				"/>
			<polygon class="st12" points="63.8,150.23 57.31,149.65 56.62,145.34 64.5,145.66 			"/>
			<path class="st16" d="M54.21,262.29h-7.02c-0.26,0-0.45,0.18-0.46,0.43l-0.34,5.56c-0.04,0.58,0.51,1.12,1.09,1.11
				c2.45-0.04,3.61-0.19,6.7-0.19c1.9,0,8.25,0.2,10.88,0.2c2.57,0,2.55-2.6,1.44-2.83c-4.99-1.05-9.44-2.51-11.21-3.89
				C54.96,262.43,54.58,262.29,54.21,262.29z"/>
			<path class="st16" d="M93.56,265.59l-7.02,0.13c-0.26,0-0.45,0.19-0.46,0.44l-0.24,5.56c-0.02,0.58,0.53,1.11,1.11,1.09
				c2.44-0.09,3.61-0.25,6.7-0.31c1.9-0.03,8.05,0.23,10.67,0.18c2.57-0.05,2.5-2.64,1.39-2.86c-5.01-0.96-9.28-2.52-11.07-3.87
				C94.32,265.71,93.93,265.58,93.56,265.59z"/>
		</g>
		<rect x="230.87" y="164.16" class="st17" width="36.54" height="5.85"/>
		<rect x="226.87" y="158.31" class="st7" width="36.54" height="5.85"/>
		<g>
			<path class="st4" d="M168.1,159.29h-1.61v0.89h1.18c1.33,0,2.41,1.08,2.41,2.41v0.05c0,1.33-1.08,2.41-2.41,2.41h-1.18v0.89h1.61
				c1.82,0,3.29-1.47,3.29-3.29v-0.07C171.39,160.77,169.92,159.29,168.1,159.29z"/>
			<path class="st4" d="M165.99,170.01h-7.3c-1.07,0-1.94-0.87-1.94-1.94v-10.76h11.17v10.76
				C167.93,169.14,167.06,170.01,165.99,170.01z"/>
			<path class="st18" d="M161.97,168.55v-10.34h-4.22v9.23c0,0.92,0.74,1.66,1.66,1.66h2.66
				C162.02,168.93,161.97,168.75,161.97,168.55z"/>
			<path class="st18" d="M164.5,158.21v9.73c0,0.45-0.16,0.85-0.42,1.16h1.24c0.92,0,1.66-0.74,1.66-1.66v-9.23H164.5z"/>
		</g>
		<g>
			<path class="st10" d="M153.84,108.06c-0.19,0-0.38-0.06-0.54-0.19c-0.36-0.3-0.42-0.83-0.12-1.19l13.08-16
				c0.28-0.34,0.78-0.41,1.14-0.16l14.97,10.53l14.65-14.12c0.34-0.32,0.87-0.32,1.2,0.02c0.32,0.34,0.31,0.87-0.02,1.2
				l-15.15,14.61c-0.29,0.28-0.74,0.32-1.08,0.08l-14.89-10.48l-12.58,15.39C154.32,107.96,154.08,108.06,153.84,108.06z"/>
			<circle class="st10" cx="153.61" cy="107.52" r="2.37"/>
			<circle class="st10" cx="167.01" cy="90.95" r="2.37"/>
			<circle class="st10" cx="197.6" cy="87.55" r="2.37"/>
		</g>
		<path class="st7" d="M138.63,75.42H114.8c-0.25,0-0.45-0.2-0.45-0.45c0-0.25,0.2-0.45,0.45-0.45h23.83c0.25,0,0.45,0.2,0.45,0.45
			C139.08,75.22,138.88,75.42,138.63,75.42z"/>
		<path class="st7" d="M143.22,79.88H114.8c-0.25,0-0.45-0.2-0.45-0.45c0-0.25,0.2-0.45,0.45-0.45h28.42c0.25,0,0.45,0.2,0.45,0.45
			C143.67,79.68,143.47,79.88,143.22,79.88z"/>
		<path class="st7" d="M143.22,70.96H114.8c-0.25,0-0.45-0.2-0.45-0.45c0-0.25,0.2-0.45,0.45-0.45h28.42c0.25,0,0.45,0.2,0.45,0.45
			C143.67,70.75,143.47,70.96,143.22,70.96z"/>
		<path class="st7" d="M138.41,84.35H114.8c-0.25,0-0.45-0.2-0.45-0.45s0.2-0.45,0.45-0.45h23.61c0.25,0,0.45,0.2,0.45,0.45
			S138.66,84.35,138.41,84.35z"/>
		<path class="st7" d="M138.41,89.43H114.8c-0.25,0-0.45-0.2-0.45-0.45c0-0.25,0.2-0.45,0.45-0.45h23.61c0.25,0,0.45,0.2,0.45,0.45
			C138.86,89.23,138.66,89.43,138.41,89.43z"/>
		<rect x="117.73" y="120.89" class="st10" width="10.17" height="10.17"/>
		<rect x="151.06" y="120.89" class="st10" width="10.17" height="10.17"/>
		<rect x="184.38" y="120.89" class="st10" width="10.17" height="10.17"/>
		<g>
			<g>
				<rect x="132.42" y="125.4" class="st19" width="14.33" height="1.13"/>
			</g>
			<g>
				<polygon class="st19" points="143.94,129.43 143.36,128.81 146.42,125.97 143.36,123.13 143.94,122.5 147.67,125.97 				"/>
			</g>
		</g>
		<g>
			<g>
				<rect x="165.18" y="125.4" class="st19" width="14.33" height="1.13"/>
			</g>
			<g>
				<polygon class="st19" points="176.7,129.43 176.12,128.81 179.18,125.97 176.12,123.13 176.7,122.5 180.43,125.97 				"/>
			</g>
		</g>
	</g>
	<linearGradient id="SVGID_1_" gradientUnits="userSpaceOnUse" x1="5.870146e-04" y1="155.03" x2="310.0594" y2="155.03">
		<stop  offset="0" style="stop-color:#5E81F4"/>
		<stop  offset="1" style="stop-color:#1C67DA"/>
	</linearGradient>
	<path class="st20" d="M216.44,308.56H93.62c-50.88,0-92.12-41.24-92.12-92.12V93.62C1.5,42.74,42.74,1.5,93.62,1.5h214.94v214.94
		C308.56,267.32,267.32,308.56,216.44,308.56z"/>
	<g>
		<path class="st19" d="M165.91,80.28c-0.54,0.19-1.61,0.51-2.87,0.51c-1.42,0-2.58-0.36-3.5-1.23c-0.8-0.78-1.3-2.02-1.3-3.48
			c0.01-2.79,1.93-4.83,5.06-4.83c1.08,0,1.93,0.24,2.33,0.43l-0.29,0.98c-0.5-0.22-1.12-0.4-2.07-0.4c-2.27,0-3.76,1.41-3.76,3.76
			c0,2.37,1.43,3.77,3.61,3.77c0.79,0,1.33-0.11,1.61-0.25v-2.79h-1.9v-0.97h3.08V80.28z"/>
		<path class="st19" d="M167.71,76.08c0-0.79-0.01-1.47-0.06-2.09h1.07l0.04,1.32h0.06c0.31-0.9,1.04-1.47,1.86-1.47
			c0.14,0,0.24,0.01,0.35,0.04v1.15c-0.12-0.03-0.25-0.04-0.42-0.04c-0.86,0-1.47,0.65-1.64,1.57c-0.03,0.17-0.05,0.36-0.05,0.57
			v3.58h-1.21V76.08z"/>
		<path class="st19" d="M175.89,80.7l-0.1-0.85h-0.04c-0.37,0.53-1.1,1-2.05,1c-1.36,0-2.05-0.96-2.05-1.93
			c0-1.62,1.44-2.51,4.04-2.5v-0.14c0-0.55-0.15-1.55-1.53-1.55c-0.62,0-1.28,0.19-1.75,0.5l-0.28-0.8c0.55-0.36,1.36-0.6,2.21-0.6
			c2.05,0,2.55,1.4,2.55,2.75v2.51c0,0.58,0.03,1.15,0.11,1.61H175.89z M175.71,77.27c-1.33-0.03-2.84,0.21-2.84,1.51
			c0,0.79,0.53,1.17,1.15,1.17c0.87,0,1.43-0.55,1.62-1.12c0.04-0.13,0.07-0.26,0.07-0.39V77.27z"/>
		<path class="st19" d="M178.86,76.18c0-0.86-0.03-1.55-0.06-2.19h1.1l0.06,1.15h0.03c0.5-0.82,1.29-1.3,2.39-1.3
			c1.62,0,2.84,1.37,2.84,3.41c0,2.41-1.47,3.61-3.05,3.61c-0.89,0-1.66-0.39-2.07-1.05h-0.03v3.65h-1.21V76.18z M180.07,77.97
			c0,0.18,0.03,0.35,0.05,0.5c0.22,0.85,0.96,1.43,1.83,1.43c1.29,0,2.04-1.05,2.04-2.59c0-1.34-0.71-2.5-2-2.5
			c-0.83,0-1.61,0.6-1.84,1.51c-0.04,0.15-0.08,0.33-0.08,0.5V77.97z"/>
		<path class="st19" d="M186.75,70.85h1.22v4.19H188c0.19-0.35,0.5-0.65,0.87-0.86c0.36-0.21,0.79-0.35,1.25-0.35
			c0.9,0,2.34,0.56,2.34,2.87v4h-1.22v-3.86c0-1.08-0.4-2-1.55-2c-0.79,0-1.42,0.55-1.64,1.22c-0.07,0.17-0.08,0.35-0.08,0.58v4.05
			h-1.22V70.85z"/>
		<path class="st19" d="M194.28,79.45c0.36,0.24,1,0.49,1.61,0.49c0.89,0,1.3-0.44,1.3-1c0-0.58-0.35-0.9-1.25-1.23
			c-1.21-0.43-1.78-1.1-1.78-1.9c0-1.08,0.87-1.97,2.32-1.97c0.68,0,1.28,0.19,1.65,0.42l-0.31,0.89c-0.26-0.17-0.75-0.39-1.37-0.39
			c-0.72,0-1.12,0.42-1.12,0.92c0,0.55,0.4,0.8,1.28,1.14c1.17,0.44,1.76,1.03,1.76,2.03c0,1.18-0.92,2.01-2.51,2.01
			c-0.74,0-1.42-0.18-1.89-0.46L194.28,79.45z"/>
	</g>
</g>
</svg>
