<svg xmlns="http://www.w3.org/2000/svg" xmlns:xlink="http://www.w3.org/1999/xlink" viewBox="0 0 310.06 310.06"><defs><style>.cls-1,.cls-25{fill:none;}.cls-2{isolation:isolate;}.cls-3{mix-blend-mode:screen;}.cls-4,.cls-5{opacity:0.25;}.cls-4{fill:url(#linear-gradient);}.cls-5{fill:url(#linear-gradient-2);}.cls-6{fill:#3a3a3a;}.cls-7{fill:#feaf84;}.cls-8{fill:#1c67da;}.cls-9{fill:#252525;}.cls-10{fill:#575757;}.cls-11{fill:#f9f9f9;}.cls-12{fill:#0b0b3a;}.cls-13{fill:#b03d44;opacity:0.45;}.cls-14{fill:#dfdfdf;}.cls-15{fill:#a5c3f1;}.cls-16{fill:#0c53bc;}.cls-17{fill:#d2e1f8;}.cls-18{fill:url(#linear-gradient-3);}.cls-19{fill:#fff;}.cls-20{fill:#ffc328;}.cls-21{fill:#f8f8f8;}.cls-22{fill:#79a4e9;}.cls-23{clip-path:url(#clip-path);}.cls-24{fill:#f78e36;}.cls-25{stroke-miterlimit:10;stroke-width:3px;stroke:url(#linear-gradient-4);}</style><linearGradient id="linear-gradient" x1="155.03" y1="265.4" x2="155.03" y2="55.8" gradientUnits="userSpaceOnUse"><stop offset="0" stop-color="#d2e1f8"/><stop offset="1" stop-color="#a5c3f1"/></linearGradient><linearGradient id="linear-gradient-2" x1="154.45" y1="267.68" x2="154.45" y2="38.85" xlink:href="#linear-gradient"/><linearGradient id="linear-gradient-3" x1="95.75" y1="161.72" x2="225.16" y2="161.72" gradientUnits="userSpaceOnUse"><stop offset="0" stop-color="#5e81f4"/><stop offset="1" stop-color="#1c67da"/></linearGradient><clipPath id="clip-path"><polygon class="cls-1" points="99.23 95.03 80.41 95.89 71.75 112.72 90.57 111.86 99.23 95.03"/></clipPath><linearGradient id="linear-gradient-4" x1="5567.56" y1="3267.83" x2="5877.62" y2="3267.83" gradientTransform="translate(-5567.56 -3112.8)" xlink:href="#linear-gradient-3"/></defs><title>F1</title><g class="cls-2"><g id="Layer_1" data-name="Layer 1"><g class="cls-3"><path class="cls-4" d="M283.25,142.82c-15.18-43.29-68.54-26.34-100.92-29.35-34.88-3.24-17.54-25.55-63-42.76C77.58,54.92,13.36,103.7,25.1,178.45c14.5,92.27,154,106.06,211.7,69.7,40.43-25.47,49.1-66.08,49.55-84.72A57.92,57.92,0,0,0,283.25,142.82Z"/><path class="cls-5" d="M250.39,67.41a58,58,0,0,0-17.26-11.68c-42.13-18.15-65.8,32.59-89.95,54.38-26,23.46-31.83,6.91-76.39,26.44S12.73,246.14,90,264.1c105.55,24.55,167.5-45.36,182.82-105.79C284.71,111.27,263.81,80.37,250.39,67.41Z"/><path class="cls-6" d="M132.11,259.89a18.72,18.72,0,0,1-2.29,3.9c-1,1.11-5.07,3.1-5.09,6.39,0,3.57,6.77,2.58,9.43,2.45s2.86-2,4-4.06,2.25-1.68,2.46-3.31-.86-5.29-.86-5.29Z"/><path class="cls-7" d="M132,258.85l-.2,1.7a14.77,14.77,0,0,0,8.14.14l-.22-2.31Z"/><path class="cls-6" d="M181.14,259.89a18.92,18.92,0,0,0,2.3,3.9c1.05,1.11,5.07,3.1,5.09,6.39,0,3.57-6.78,2.58-9.44,2.45s-2.86-2-4-4.06-2.25-1.68-2.46-3.31.86-5.29.86-5.29Z"/><path class="cls-7" d="M181.26,258.85l.19,1.7a14.74,14.74,0,0,1-8.13.14l.22-2.31Z"/><path class="cls-8" d="M179.06,213.76c0,4.4,4.11,44.62,4.11,44.62-.47,1.47-10.56,1.29-12.14.55s-6.15-40.58-6.44-45-6.86-43.07-8.25-42.92-7.92,41.53-9,44.91-6.1,43.42-6.1,43.42c-3.47,1.9-11.7-.48-11.7-.48s1.72-41.11,1.92-42.35c.29-1.84,0-6.79.79-17.78.72-9.82,3.31-31.22,5-42.81.06-.41.11-.81.17-1.19.32-2.25.56-3.91.68-4.7.05-.35.07-.53.07-.53.44-.19.91-.36,1.39-.53C151,145.09,173,145.34,173,145.34s.31,3.94.33,4.14.08.59.14,1.07c.12,1,.32,2.54.54,4.3v0l0,.16c.78,6.29,1.87,15.49,1.77,16.45C175.61,173,179.06,209.35,179.06,213.76Z"/><path class="cls-9" d="M137.78,129.75s10.58,3.9,34.5.23l-.32-4.33s-13.87,4.09-33.75.58Z"/><rect class="cls-10" x="152.21" y="126.98" width="6.5" height="4.83"/><path class="cls-11" d="M180.82,83.68l-5.69,20.43c-.2.66-.43,1.47-.68,2.42v0s0,0,0,0A80.26,80.26,0,0,0,172,122c-.24,4.21.54,21.11.54,21.11s-8.62,3.21-21.51,2.4c0,0-13.87-.33-12.73-8.83,3-22.5.06-31.78-.33-34,0,0-1.64-10.37-3-19.53,3.91-1.45,20.33-7.62,20.33-7.62l8.64.65S177,79.32,180.82,83.68Z"/><path class="cls-7" d="M159.6,46.57s8.43,1.42,7,14.61-8.87,12-9.37,12-7.48.16-7.85-16C149.38,57.22,149.28,45.29,159.6,46.57Z"/><path class="cls-7" d="M163.3,69.37s-.3,5.43.22,6.61-6.77,4.93-11.29.67c0,0,.91-5.94.63-8S163.3,69.37,163.3,69.37Z"/><path class="cls-7" d="M166.77,57.45s.94-1,1.27,0-1.5,5.45-1.38,5.65c0,0-.18.39-.4.17S166.77,57.45,166.77,57.45Z"/><path class="cls-7" d="M149.48,57.1s-.89-1-1.26,0,1,5.43,1.14,5.71c0,0,.29.45.52.25S149.48,57.1,149.48,57.1Z"/><path class="cls-12" d="M167.31,56.33c-.29,1.81-.56,3.15-.56,3.15l-1.23,1.6a33.67,33.67,0,0,0-.11-4.1,7.2,7.2,0,0,1-.24-1c-.15-.66-.29-1.42-.39-1.67s-7.22-2.46-13.52.43a10.48,10.48,0,0,1,.05,1.16c0,.71-.08,1.5-.4,1.62-.6.22-.35,4.14-.35,4.14l-1-1.13s-.29-2-.57-4.41h0c-.06-.55-.13-1.12-.19-1.68-.14-2.37.1-6.67,3.18-9.2,2.09-.89,7.78-1.79,10.95,0a21.84,21.84,0,0,1,2.06,1.4C168.47,50.49,167.31,56.33,167.31,56.33Z"/><path class="cls-13" d="M153.44,71.43a5.36,5.36,0,0,0,4.47,1.8,6.09,6.09,0,0,0,4.48-1.7s-1.48,3.09-4.5,3.06S153.44,71.43,153.44,71.43Z"/><path class="cls-7" d="M151.37,76.76s2.26,3.93,6.54,4.3c2.72.24,5.05-3.22,6.16-4.91A16.42,16.42,0,0,0,151.37,76.76Z"/><path class="cls-14" d="M163.31,74.92a23.71,23.71,0,0,1-5.4,4.67l2.28,3.52,3.9-7Z"/><path class="cls-14" d="M152.4,75.44a15.66,15.66,0,0,0,5.51,4.15l-2.5,3.62L151.05,77Z"/><path class="cls-15" d="M157.91,79.59l2,3a4.08,4.08,0,0,1-4-.08Z"/><path class="cls-16" d="M164.09,76.13s-2.48,18.5-2.14,34.44,5.52,45.81,5.52,45.81,9.22-.9,11.51-3.78c0,0-5.29-28.76-5.14-33s6.78-36.32,6.78-36.32S178,79.8,164.09,76.13Z"/><path class="cls-16" d="M150.85,77.1s0,17.53-.36,33.47-2.44,45.59-2.44,45.59-10.82-1.54-13.11-4.42c0,0,3.82-27.9,3.67-32.16s-4.89-36-4.89-36S135.35,81.24,150.85,77.1Z"/><path class="cls-15" d="M157,81.81s-2.9,9.91-3.15,29.58.35,25.32.35,25.32l2.27,4.48,3-4.68s-1-45.27-.41-54.35Z"/><path class="cls-16" d="M192,122.24c-5.17,2.49-18.24,3.12-23.28,3.1-1.06,0-2.27,0-3.5,0h0c-2.05,0-4.18.11-5.91.18h0l-3.65.15S180.82,114,181.8,113.8,176,98.86,176,98.86s-6.23-12.21-5.56-17.69c0,0,7.15.58,9.66,1.66,1.4.6,3.52,6,5.17,9.67,2.1,4.61,6.93,15.11,7.72,17.38C193.69,111.94,197.16,119.76,192,122.24Z"/><path class="cls-16" d="M143.4,83s-8.78-.5-9.55.36c-3.28,3.6-5.88,7.93-7.14,9.58-1.54,2-5.68,8.23-6.94,10.3-1.6,2.63-6.53,12.26-6.77,14-.31,2.14,4.33,3.86,7,4.48s40.35,6.19,40.35,6.19.64-7.18.76-7.78c0,0-27.69-7.72-31.35-8.37a23.33,23.33,0,0,0-2.57-.38S142.7,89.73,143.4,83Z"/><path class="cls-12" d="M163.54,46.47s2.09-1,3.22.33,1.26,8.89-.12,11.77S166.86,48.34,163.54,46.47Z"/><rect class="cls-17" x="89.16" y="110.41" width="142.6" height="102.62"/><rect class="cls-17" x="97.75" y="116.6" width="125.41" height="90.25"/><path class="cls-18" d="M225.16,208.85H95.75V114.6H225.16Zm-125.41-4H221.16V118.6H99.75Z"/><rect class="cls-19" x="101.22" y="119.99" width="118.47" height="83.47"/><path class="cls-19" d="M220.19,204H100.72V119.49H220.19Zm-118.47-1H219.19V120.49H101.72Z"/><polygon class="cls-20" points="139.06 184.46 141.03 182.62 138.93 180.93 140.36 178.64 137.89 177.56 138.67 174.98 136.01 174.57 136.1 171.88 133.42 172.17 132.81 169.55 130.3 170.52 129.03 168.15 126.86 169.74 125.02 167.77 123.33 169.87 121.04 168.45 119.96 170.91 117.38 170.13 116.97 172.79 114.28 172.7 114.57 175.38 111.94 175.99 112.92 178.5 110.54 179.77 112.14 181.94 110.17 183.78 112.27 185.47 110.85 187.76 113.31 188.84 112.53 191.42 115.19 191.83 115.1 194.53 117.78 194.23 118.39 196.86 120.9 195.88 122.17 198.26 124.34 196.67 126.18 198.63 127.87 196.53 130.16 197.96 131.24 195.49 133.82 196.28 134.23 193.61 136.93 193.7 136.63 191.02 139.26 190.41 138.28 187.9 140.66 186.63 139.06 184.46"/><polygon class="cls-21" points="125.94 192.27 124.28 193.22 124.54 191.33 123.12 190.04 125 189.7 125.78 187.95 126.69 189.63 128.59 189.84 127.28 191.22 127.67 193.09 125.94 192.27"/><polygon class="cls-21" points="118.4 189.28 116.74 190.24 116.99 188.34 115.58 187.06 117.46 186.71 118.24 184.97 119.15 186.65 121.05 186.85 119.73 188.24 120.13 190.11 118.4 189.28"/><polygon class="cls-21" points="133.24 188.72 131.58 189.68 131.83 187.78 130.41 186.5 132.29 186.15 133.08 184.41 133.99 186.09 135.89 186.29 134.57 187.68 134.97 189.55 133.24 188.72"/><path class="cls-22" d="M203.71,182.18H149.37a.5.5,0,0,1,0-1h54.34a.5.5,0,0,1,0,1Z"/><path class="cls-22" d="M203.71,188.1H149.37a.5.5,0,0,1-.5-.5.5.5,0,0,1,.5-.5h54.34a.5.5,0,0,1,.5.5A.5.5,0,0,1,203.71,188.1Z"/><path class="cls-22" d="M203.71,194H149.37a.5.5,0,0,1-.5-.5.5.5,0,0,1,.5-.5h54.34a.5.5,0,0,1,.5.5A.5.5,0,0,1,203.71,194Z"/><path class="cls-22" d="M207.83,150.76H113.08a.5.5,0,0,1-.5-.5.5.5,0,0,1,.5-.5h94.75a.5.5,0,0,1,.5.5A.5.5,0,0,1,207.83,150.76Z"/><path class="cls-22" d="M207.83,156.92H113.08a.5.5,0,0,1,0-1h94.75a.5.5,0,0,1,0,1Z"/><path class="cls-22" d="M187.63,163.08H133.28a.5.5,0,0,1-.5-.5.51.51,0,0,1,.5-.5h54.35a.51.51,0,0,1,.5.5A.5.5,0,0,1,187.63,163.08Z"/><path class="cls-22" d="M187.63,144.6H133.28a.51.51,0,0,1-.5-.5.5.5,0,0,1,.5-.5h54.35a.5.5,0,0,1,.5.5A.51.51,0,0,1,187.63,144.6Z"/><polygon class="cls-7" points="119.55 108.32 114.39 104.57 108.07 107.38 106.43 110.42 111.93 110.42 111 112.77 112.99 112.77 118.51 112.14 119.55 108.32"/><polygon class="cls-7" points="191.14 108.32 196.3 104.57 202.62 107.38 204.26 110.42 198.76 110.42 199.69 112.77 197.7 112.77 192.18 112.14 191.14 108.32"/><path class="cls-16" d="M127,136.28a1.52,1.52,0,0,1-1,1.27,5.17,5.17,0,0,1-4.56,0,1.5,1.5,0,0,1-1-1.27v-8.94c0-.49.31-.91,1-1.27a5.17,5.17,0,0,1,4.56,0c.63.36,1,.78,1,1.27v2h-2.16v-2.77a.59.59,0,0,0-.31-.5,1.35,1.35,0,0,0-.76-.21,1.33,1.33,0,0,0-.76.21.6.6,0,0,0-.32.5v10.48a.59.59,0,0,0,.32.5,1.33,1.33,0,0,0,.76.21,1.35,1.35,0,0,0,.76-.21.57.57,0,0,0,.31-.5v-2.76H127Z"/><path class="cls-16" d="M134.88,138h-6.73v-.32h.67V126h-.67v-.32h6.73v3.71h-2.16V126H131v5.35h2.54v.32H131v6h1.74v-3.38h2.16Z"/><path class="cls-16" d="M143.61,138h-.94q-1.89,0-1.89-1.29v-4.37a.59.59,0,0,0-.31-.5,1.35,1.35,0,0,0-.76-.21h-.94v6h.67V138H136v-.32h.67V126H136v-.32h3.76a4.63,4.63,0,0,1,2.28.53,1.52,1.52,0,0,1,.95,1.27v2.39c0,.77-.63,1.32-1.88,1.64,1.25.34,1.88.89,1.88,1.64v4.1c0,.32.2.47.61.47h.06Zm-2.83-7.39v-3.95a.6.6,0,0,0-.31-.5,1.43,1.43,0,0,0-.76-.2h-.94v5.35h.94a1.43,1.43,0,0,0,.76-.2A.6.6,0,0,0,140.78,130.6Z"/><path class="cls-16" d="M152.35,129.34h-2V126h-1v11.72h.66V138h-3.49v-.32h.67V126h-1v3.39h-2v-3.71h8.06Z"/><path class="cls-16" d="M156.71,138h-3.49v-.32h.67V126h-.67v-.32h3.49V126H156v11.72h.67Z"/><path class="cls-16" d="M164.15,129.34H162V126H160.4v5.35h2.41v.32H160.4v6h.67V138h-3.5v-.32h.67V126h-.67v-.32h6.58Z"/><path class="cls-16" d="M168.51,138H165v-.32h.67V126H165v-.32h3.49V126h-.67v11.72h.67Z"/><path class="cls-16" d="M176.23,136.28a1.52,1.52,0,0,1-.95,1.27,4.63,4.63,0,0,1-2.28.53,4.68,4.68,0,0,1-2.28-.53,1.52,1.52,0,0,1-.95-1.27v-8.94c0-.49.32-.91.95-1.27a4.68,4.68,0,0,1,2.28-.53,4.63,4.63,0,0,1,2.28.53c.63.36.95.78.95,1.27v2h-2.15v-2.77a.6.6,0,0,0-.32-.5,1.48,1.48,0,0,0-1.52,0,.6.6,0,0,0-.32.5v10.48a.59.59,0,0,0,.32.5,1.48,1.48,0,0,0,1.52,0,.59.59,0,0,0,.32-.5v-2.76h2.15Z"/><path class="cls-16" d="M184.29,138H180.8v-.32h.67l-.49-3.58h-1.93l-.54,3.58h.67V138h-2v-.32h.67l1.89-12h2.15l1.75,12h.67ZM181,133.78l-.9-6.69-1,6.69Z"/><path class="cls-16" d="M192.89,129.34h-2V126h-1v11.72h.67V138h-3.49v-.32h.67V126h-1v3.39h-2v-3.71h8.06Z"/><path class="cls-16" d="M200.42,138H193.7v-.32h.67V126h-.67v-.32h6.72v3.71h-2.15V126h-1.74v5.35h2.54v.32h-2.54v6h1.74v-3.38h2.15Z"/><path class="cls-20" d="M81,118.39a2.6,2.6,0,0,0,2.39,1.6,20.62,20.62,0,0,0,10.21-3.59,20.65,20.65,0,0,0,7.49-7.81,2.59,2.59,0,0,0-.46-2.84L94.2,98.26,76.78,109.48Z"/><path class="cls-1" d="M78.46,113.09,91,112.51l5.78-11.23,3.81,4.47a2.59,2.59,0,0,1,.46,2.84,20.65,20.65,0,0,1-7.49,7.81A20.62,20.62,0,0,1,83.34,120a2.6,2.6,0,0,1-2.39-1.6Z"/><polygon class="cls-13" points="78.46 113.09 76.78 109.48 94.2 98.27 96.77 101.28 90.99 112.52 78.46 113.09"/><g class="cls-2"><g class="cls-23"><polygon class="cls-20" points="71.75 112.72 80.41 95.89 99.23 95.03 90.57 111.86 71.75 112.72"/></g></g><path class="cls-19" d="M85,118.9a2,2,0,0,0,.69-.32c.41-.3,0-.6-.17-.91l-.52-.81-1.26-1.94a5.76,5.76,0,0,0-1-1.35,4.81,4.81,0,0,1-.51-.49c-.41-.49-.3-1,0-1.89s.74-1.61,1.09-2.3c.77-1.5,1.62-3.06,2.61-4.77a.5.5,0,1,0-.87-.49c-1,1.72-1.85,3.29-2.62,4.81-.37.71-.78,1.53-1.13,2.37a2.89,2.89,0,0,0-.13,2.56c.31.57.79,1,1.11,1.58a6.24,6.24,0,0,1,.61,1.21l.66,2.16c.1.34.18.55.56.62A2.18,2.18,0,0,0,85,118.9Z"/><circle class="cls-24" cx="82.79" cy="114.65" r="1.52"/></g><path class="cls-25" d="M93.62,1.5H308.56a0,0,0,0,1,0,0V216.44a92.12,92.12,0,0,1-92.12,92.12H93.62A92.12,92.12,0,0,1,1.5,216.44V93.62A92.12,92.12,0,0,1,93.62,1.5Z" transform="translate(0 310.06) rotate(-90)"/></g></g></svg>