<svg xmlns="http://www.w3.org/2000/svg" xmlns:xlink="http://www.w3.org/1999/xlink" viewBox="0 0 310.06 310.06"><defs><style>.cls-1{isolation:isolate;}.cls-2{mix-blend-mode:screen;}.cls-3,.cls-4{opacity:0.25;}.cls-3{fill:url(#linear-gradient);}.cls-4{fill:url(#linear-gradient-2);}.cls-5{fill:#a5c3f1;}.cls-6{fill:#fff;}.cls-7{fill:#c1c1c1;}.cls-8{fill:url(#linear-gradient-3);}.cls-9{fill:#79a4e9;}.cls-10{fill:#dcdcdc;}.cls-11{fill:#a7a7a7;}.cls-12{fill:#feaf84;}.cls-13{fill:#3a3a3a;}.cls-14{fill:#1c67da;}.cls-15{fill:#0b0b3a;}.cls-16{fill:#d6d6d6;}.cls-17{fill:#383838;}.cls-18{fill:url(#linear-gradient-4);}.cls-19{fill:#f9f9f9;}.cls-20{fill:url(#linear-gradient-5);}.cls-21{fill:#d2e1f8;}.cls-22{fill:#0c53bc;}.cls-23{fill:#b03d44;opacity:0.45;}.cls-24{fill:#dfdfdf;}.cls-25{fill:#f78e36;}.cls-26{fill:#ffc328;}.cls-27{fill:none;stroke-miterlimit:10;stroke-width:3px;stroke:url(#linear-gradient-6);}</style><linearGradient id="linear-gradient" x1="160.03" y1="262.68" x2="160.03" y2="53.08" gradientUnits="userSpaceOnUse"><stop offset="0" stop-color="#d2e1f8"/><stop offset="1" stop-color="#a5c3f1"/></linearGradient><linearGradient id="linear-gradient-2" x1="159.45" y1="264.96" x2="159.45" y2="36.13" xlink:href="#linear-gradient"/><linearGradient id="linear-gradient-3" x1="121.35" y1="152.44" x2="130.06" y2="152.44" gradientUnits="userSpaceOnUse"><stop offset="0" stop-color="#5e81f4"/><stop offset="1" stop-color="#1c67da"/></linearGradient><linearGradient id="linear-gradient-4" x1="88.08" y1="125.41" x2="163.33" y2="125.41" xlink:href="#linear-gradient-3"/><linearGradient id="linear-gradient-5" x1="121.36" y1="162.37" x2="141.28" y2="162.37" xlink:href="#linear-gradient-3"/><linearGradient id="linear-gradient-6" x1="-3161.2" y1="5674.19" x2="-2851.15" y2="5674.19" gradientTransform="translate(3161.2 -5519.16)" xlink:href="#linear-gradient-3"/></defs><title>F1</title><g class="cls-1"><g id="Layer_1" data-name="Layer 1"><g class="cls-2"><path class="cls-3" d="M288.25,140.1c-15.18-43.29-68.54-26.34-100.92-29.35-34.88-3.24-17.54-25.55-63-42.76C82.58,52.2,18.36,101,30.1,175.73c14.5,92.27,154,106.06,211.7,69.7,40.43-25.47,49.1-66.08,49.55-84.72A57.92,57.92,0,0,0,288.25,140.1Z"/><path class="cls-4" d="M255.39,64.69A58,58,0,0,0,238.13,53C196,34.86,172.33,85.6,148.18,107.39c-26,23.46-31.83,6.91-76.39,26.44S17.73,243.42,95,261.38C200.52,285.93,262.47,216,277.79,155.59,289.71,108.55,268.81,77.65,255.39,64.69Z"/><rect class="cls-5" x="86.27" y="163.71" width="33.11" height="1.96"/><rect class="cls-6" x="90.71" y="170.79" width="2.9" height="89.38" transform="translate(184.32 430.96) rotate(-180)"/><rect class="cls-7" x="114.2" y="163.15" width="23.01" height="2.81"/><rect class="cls-8" x="121.35" y="139.21" width="8.71" height="26.47"/><rect class="cls-6" x="74.4" y="165.71" width="127.5" height="5.08"/><path class="cls-9" d="M49.92,135s-1.39,19.56,2.43,21.9c2.4,1.46,11.94,6.41,11.66,7.33s-5.39,8.26-5.39,8.26-18.33-12.08-18.93-15.88.91-28.63,3.43-29.78c1.88-.86,2.88-.15,5.26,1.62C51.72,130.87,49.92,135,49.92,135Z"/><path class="cls-10" d="M83.34,140.53l1.61-.59s-2-4.73-2.89-4.62a21.08,21.08,0,0,0-2.28.47Z"/><path class="cls-11" d="M83.71,141.35c-.21-.15-3.44-6.35-3.44-6.35l-6.9.94,3.73,7.33Z"/><path class="cls-12" d="M72.48,248s-.57,4-.64,4.56-6.34-.36-6.34-.36L65,247.45S71.7,247.4,72.48,248Z"/><path class="cls-13" d="M71.91,252a16.83,16.83,0,0,0,3.9,3.43c1.93,1,5,1.45,6.08,2.52.82.78,3,4.12-5,4.05s-11.83.48-12.68-.81,1.23-9.46,1.23-9.46S67.34,252.42,71.91,252Z"/><path class="cls-12" d="M112.65,248s-.56,4-.64,4.55-6.34-.35-6.34-.35l-.51-4.71S111.87,247.44,112.65,248Z"/><path class="cls-13" d="M112.08,252.05a17,17,0,0,0,3.91,3.42c1.92,1,9,1.9,10.13,3,.82.78,2.18,3.9-9.05,3.61-8-.21-11.83.47-12.68-.81s1.24-9.46,1.24-9.46S107.41,252.51,112.08,252.05Z"/><path class="cls-14" d="M52.26,179.61s22.79,3.86,27.94,4.67,33.07,7.75,36.56,9.87c2.78,1.68-1.46,42.15-2.45,57.59h-11l-.8-46.31c-13.2.33-22.61-3.09-32.22-1.63s-17.62,3.53-23.73-4.66C46.57,199.14,46.35,181.4,52.26,179.61Z"/><path class="cls-14" d="M74.73,251.78,64,251.12l-1-45.69a65.12,65.12,0,0,1-12.23-.78l-8.65-20.11c7.58,1.52,31.88,7.65,35.12,9.61C80,195.84,75.72,236.34,74.73,251.78Z"/><path class="cls-12" d="M62.75,94.16s8.36-2.31,11.55,4.18,1.74,18.78-2.47,19.94-10.27-.17-12-4.21-3.14-9.78-2.72-13.49S60.53,95.05,62.75,94.16Z"/><path class="cls-12" d="M69.64,117s-.09,4.93.45,6-11.63.79-11.63.79,1.92-5.92.83-11S69.64,117,69.64,117Z"/><path class="cls-15" d="M58.63,110.92s.65,1.32,3.81,1.11,7.31-4,8.65-4.36,1.42-1.1,1.42-1.1l.7,1.26,1.37.21s-.93-3.81,1.1-5.16-.91-12.15-11.19-9.54c0,0-7.85,1.43-7.95,5.82S57.11,108.6,58.63,110.92Z"/><path class="cls-16" d="M70.74,122.84s0-2-.95-2.2-9.57-1.38-10.69-.94l-.48,2.65S60.77,123.68,70.74,122.84Z"/><path class="cls-12" d="M73.24,105.67c-.23-1.65-2.1-3.54-3.18-1s.73,6.3,1.93,6.1S73.56,107.91,73.24,105.67Z"/><path class="cls-17" d="M107,146.59h0C107.07,146.62,107.08,146.62,107,146.59Z"/><path class="cls-15" d="M60.31,95.34s-10.19-.48-1.78,15.42Z"/><polygon class="cls-9" points="37.61 257.2 38.37 259.33 70.39 249.41 68.86 245.09 37.61 257.2"/><rect class="cls-9" x="67.85" y="213.07" width="3.64" height="34.82"/><rect class="cls-5" x="58.94" y="211.22" width="21.47" height="2.05"/><polygon class="cls-9" points="102.02 257.2 101.26 259.33 69.23 249.41 70.64 244.82 102.02 257.2"/><polygon class="cls-9" points="79.45 259.11 79.45 261.58 69.23 249.41 70.64 244.82 79.45 259.11"/><path class="cls-5" d="M105,260.17a3,3,0,1,1-3-3A3,3,0,0,1,105,260.17Z"/><path class="cls-5" d="M79.71,260.17a3,3,0,1,1-3-3A3,3,0,0,1,79.71,260.17Z"/><path class="cls-5" d="M40.6,260.17a3,3,0,1,1-3-3A3,3,0,0,1,40.6,260.17Z"/><rect class="cls-9" x="44.38" y="203.45" width="50.86" height="7.77" rx="2.99"/><rect class="cls-6" x="182.69" y="170.79" width="2.9" height="89.38"/><rect class="cls-18" x="88.08" y="98.87" width="75.25" height="53.08" rx="3.61"/><rect class="cls-19" x="91.03" y="101.74" width="69.35" height="41.9"/><rect class="cls-5" x="91.03" y="101.74" width="69.35" height="3.33"/><path class="cls-6" d="M128.13,147.66a2.43,2.43,0,1,1-2.43-2.43A2.42,2.42,0,0,1,128.13,147.66Z"/><path class="cls-20" d="M141.28,165.78v-.95S140,159,130.56,159s-9.2,6.82-9.2,6.82Z"/><path class="cls-12" d="M121.24,159.83a9.33,9.33,0,0,0,2.79-.61c.75-.45,5.22-3.46,6.27-3s8,2.62,7.8,3.65-.89.92-1.38.74-5.57-1.25-6-1.07c0,0,5,1.82,5,3.15s-1.05,1.65-1.52,2.15-1,1.75-2.32,1.85-7.56-2.09-8.85-2.19-3.68.08-3.84-.13S121.24,159.83,121.24,159.83Z"/><path class="cls-9" d="M84.09,125.63c-6.51-1.14-13.35-2.79-13.35-2.79l-12.12-.49s-11.12,2.45-15.5,4.43c-.42.18-.42,9.92-1.56,12.47l3.63,7.66s2.1,15.18,2.53,21.93c.2,3.1-.56,29.94-.56,29.94s1.09.54,9.36,1.45,28.93-.33,29.06-1.3-4-36.38-4.18-38.21c-.28-2.82.81-15.81.81-15.81,1.56,2.09,5.53,11.54,9.67,16,2.44,2.64,14.5,4.27,16.77,4.34,4.95.17,14,1.15,14.24.67.21-.29.79-8,.22-8.2s-17.26-1.13-21.55-3.41c-1.57-.83-6.27-11.08-6.27-11.08S87.68,127.24,84.09,125.63Z"/><path class="cls-5" d="M39.44,149.42H60.63a6.94,6.94,0,0,1,6.94,6.94v34.69A6.94,6.94,0,0,1,60.63,198H39.44a6.94,6.94,0,0,1-6.94-6.94V156.37A6.95,6.95,0,0,1,39.44,149.42Z"/><path class="cls-5" d="M61.36,209.29c-5.17,0-9.36-1.74-12.47-5.17-7-7.74-5.75-21.35-5.69-21.92a1.95,1.95,0,1,1,3.88.38c0,.16-1.13,12.49,4.71,18.93,2.37,2.61,5.5,3.87,9.57,3.87a2,2,0,0,1,0,3.91Z"/><rect class="cls-21" x="93.97" y="106.61" width="8.19" height="0.84"/><rect class="cls-21" x="104.46" y="112.93" width="5.92" height="0.84"/><rect class="cls-22" x="111.3" y="112.93" width="3.93" height="0.84"/><rect class="cls-22" x="119.32" y="138.3" width="3.93" height="0.84"/><rect class="cls-22" x="94.06" y="128.82" width="3.93" height="0.84"/><rect class="cls-21" x="116" y="112.93" width="9.48" height="0.84"/><rect class="cls-21" x="94.06" y="125.64" width="6.09" height="0.84"/><rect class="cls-21" x="110.43" y="131.98" width="6.09" height="0.84"/><rect class="cls-21" x="133.19" y="138.3" width="6.09" height="0.84"/><rect class="cls-21" x="102.56" y="131.98" width="3.72" height="0.84"/><rect class="cls-22" x="94.06" y="131.98" width="7.37" height="0.84"/><rect class="cls-21" x="94.06" y="135.14" width="4.06" height="0.84"/><rect class="cls-9" x="103.76" y="106.61" width="5.82" height="0.84"/><rect class="cls-22" x="103.76" y="116.09" width="5.82" height="0.84"/><rect class="cls-21" x="100.85" y="119.25" width="2.49" height="0.84"/><rect class="cls-9" x="98.37" y="122.46" width="5.58" height="0.84"/><rect class="cls-22" x="104.79" y="122.46" width="7.71" height="0.84"/><rect class="cls-22" x="129.2" y="135.14" width="7.71" height="0.84"/><rect class="cls-22" x="94.06" y="119.27" width="5.82" height="0.84"/><rect class="cls-22" x="94.06" y="122.46" width="3.45" height="0.84"/><rect class="cls-21" x="104.51" y="119.27" width="3.26" height="0.84"/><rect class="cls-21" x="94.16" y="138.3" width="3.26" height="0.84"/><rect class="cls-9" x="94.04" y="112.93" width="5.82" height="0.84"/><rect class="cls-9" x="99.19" y="128.82" width="5.82" height="0.84"/><rect class="cls-9" x="99.26" y="135.14" width="5.82" height="0.84"/><rect class="cls-9" x="109.59" y="135.14" width="5.82" height="0.84"/><rect class="cls-9" x="94.04" y="116.09" width="8.29" height="0.84"/><rect class="cls-9" x="132.9" y="106.61" width="5.82" height="0.84"/><rect class="cls-9" x="112.18" y="138.3" width="5.82" height="0.84"/><rect class="cls-9" x="140.53" y="106.61" width="3.89" height="0.84"/><rect class="cls-9" x="153.71" y="109.77" width="3.89" height="0.84"/><rect class="cls-22" x="111.14" y="106.61" width="7.41" height="0.84"/><rect class="cls-22" x="140.53" y="138.3" width="7.41" height="0.84"/><rect class="cls-22" x="98.65" y="138.3" width="7.41" height="0.84"/><rect class="cls-22" x="140.02" y="109.77" width="7.41" height="0.84"/><rect class="cls-22" x="130.93" y="112.93" width="7.41" height="0.84"/><rect class="cls-22" x="124.49" y="138.3" width="7.41" height="0.84"/><rect class="cls-22" x="123.35" y="131.98" width="7.41" height="0.84"/><rect class="cls-22" x="121.28" y="116.09" width="7.41" height="0.84"/><rect class="cls-21" x="107.44" y="131.98" width="1.6" height="0.84"/><rect class="cls-9" x="139.28" y="112.93" width="5.27" height="0.84"/><rect class="cls-9" x="124.04" y="106.61" width="7.41" height="0.84"/><rect class="cls-21" x="115.58" y="116.09" width="4.35" height="0.84"/><rect class="cls-9" x="112.18" y="128.87" width="4.35" height="0.84"/><rect class="cls-21" x="119.93" y="106.61" width="2.71" height="0.84"/><rect class="cls-21" x="111.14" y="116.09" width="2.71" height="0.84"/><rect class="cls-21" x="149.22" y="109.77" width="2.71" height="0.84"/><rect class="cls-22" x="93.97" y="109.77" width="4.24" height="0.84"/><rect class="cls-22" x="105.3" y="125.66" width="3.35" height="0.84"/><rect class="cls-9" x="99.26" y="109.77" width="1.37" height="0.84"/><rect class="cls-21" x="127.39" y="109.77" width="11.33" height="0.84"/><rect class="cls-21" x="116.52" y="135.14" width="11.33" height="0.84"/><rect class="cls-21" x="101.63" y="109.77" width="1.4" height="0.84"/><rect class="cls-22" x="122.64" y="109.77" width="3.71" height="0.84"/><rect class="cls-21" x="126.35" y="112.93" width="3.71" height="0.84"/><rect class="cls-9" x="118.07" y="131.98" width="3.71" height="0.84"/><rect class="cls-21" x="107.29" y="138.3" width="3.71" height="0.84"/><rect class="cls-22" x="113.77" y="109.77" width="7.89" height="0.84"/><rect class="cls-22" x="132.12" y="131.98" width="7.89" height="0.84"/><rect class="cls-22" x="106.43" y="128.87" width="4.61" height="0.84"/><rect class="cls-22" x="106.14" y="135.14" width="2.3" height="0.84"/><rect class="cls-21" x="109.94" y="109.77" width="2.71" height="0.84"/><rect class="cls-9" x="137.92" y="135.14" width="2.71" height="0.84"/><rect class="cls-21" x="100.81" y="112.93" width="2.71" height="0.84"/><rect class="cls-21" x="101.35" y="125.66" width="2.71" height="0.84"/><rect class="cls-22" x="104.18" y="109.77" width="4.73" height="0.84"/><path class="cls-12" d="M269.64,249.17s.49,3.41.56,3.93,5.47-.31,5.47-.31l.43-4.06S270.32,248.69,269.64,249.17Z"/><path class="cls-13" d="M270.14,252.66a14.82,14.82,0,0,1-3.37,3c-1.66.89-4.27,1.25-5.25,2.18-.7.67-2.57,3.55,4.31,3.49s10.2.41,10.94-.7-1.07-8.16-1.07-8.16S274.07,253,270.14,252.66Z"/><path class="cls-12" d="M230.89,249.17s.49,3.41.55,3.93,5.47-.31,5.47-.31l.44-4.06S231.56,248.69,230.89,249.17Z"/><path class="cls-13" d="M231.38,252.66a14.57,14.57,0,0,1-3.37,3c-1.65.89-7.75,1.63-8.73,2.56-.71.67-1.89,3.36,7.8,3.11,6.88-.18,10.2.41,10.94-.7s-1.07-8.16-1.07-8.16S235.41,253.06,231.38,252.66Z"/><path class="cls-9" d="M265.16,161.47s5.09,8.07,4.71,15.37,1.84,15.27,2.6,22.89c.85,8.5,4.34,28.63,4.46,33.17s-.54,19.07-.54,19.07l-7,.16s-5.86-35.18-7.37-38.77-9-29.18-9.29-32.05S265.16,161.47,265.16,161.47Z"/><path class="cls-9" d="M238.41,162.56s-3.83,20-4.34,24.47-.84,21.62-1.09,24.41-2.36,36.46-3,40.69h8.91S245.7,227.6,245.7,216s5.29-25.23,8.7-32.89,11.22-7.84,13.32-22C267.72,161.06,241.25,158.06,238.41,162.56Z"/><path class="cls-19" d="M272.68,116.19,268,133.09c-.16.55-.36,1.22-.56,2v.05a66,66,0,0,0-2,12.71c-.2,3.48.44,17.46.44,17.46s-7.12,2.66-17.79,2c0,0-11.47-.26-10.54-7.3,2.48-18.62.06-26.3-.27-28.16,0,0-1.35-8.58-2.47-16.16l16.82-6.3,7.14.53S269.54,112.58,272.68,116.19Z"/><path class="cls-12" d="M249.16,109.38l.17-5.48s9.56-5.91,8.83-1.72c-.34,1.92-.7,3.35-.47,4.45a24.62,24.62,0,0,0,.63,2.47s-2.08,3.81-4.6,3.71C251.39,112.72,249.16,109.38,249.16,109.38Z"/><path class="cls-23" d="M256.51,102.45s-1.62,3.51-7.31,5.77c0-.33,0-1.93,0-1.93A23.49,23.49,0,0,0,256.51,102.45Z"/><path class="cls-12" d="M276.68,165.41a5.14,5.14,0,0,0-.69,1.82,8.83,8.83,0,0,1-.84,2.15,20.55,20.55,0,0,0-1,3.59,16.52,16.52,0,0,1,.49,2.4c-.09.52-.38,1.55.08,1.62s1-.78,1-.78a.67.67,0,0,0,.35.66c.77.36,1.17,0,1.17,0s.29.53.64.6a1.44,1.44,0,0,0,1.17-.16,1.38,1.38,0,0,0,.88.29,1.18,1.18,0,0,0,1-.61s.87.17,1.13-.24a3.86,3.86,0,0,0,.31-1.21,14,14,0,0,0-1.11-6.13,5.45,5.45,0,0,1,.29-4.76Z"/><path class="cls-12" d="M275.57,175.9s-.08-3,.71-3.65.88.45.88.45-.11-1.07.75-1.22.9,1.13.9,1.13a.85.85,0,0,1,1.05-.66c.91.17.7,1.23.7,1.23s.86-1,1.42,0a4.42,4.42,0,0,1,0,3.65s-.27.46-1.13.24a1.19,1.19,0,0,1-1.87.32s-1.33.73-1.81-.44A1.09,1.09,0,0,1,275.57,175.9Z"/><path class="cls-14" d="M266.49,122.14s5.14,17.14,6.88,23.46c.54,2,1.86,20.92,2.09,21.68s6.76,1.81,6.76,1.81-.79-23.69-.87-25-7.19-27.74-9.26-28.69c-1.56-.7-2.38-.12-4.33,1.33C265,118.79,266.49,122.14,266.49,122.14Z"/><path class="cls-22" d="M237.92,168.88s8.75,3.23,28.53.19l-.26-3.58s-11.47,3.38-27.92.48Z"/><rect class="cls-14" x="249.85" y="166.59" width="5.38" height="4"/><path class="cls-24" d="M258.19,108.94a19.42,19.42,0,0,1-4.47,3.87l1.89,2.91,3.22-5.77Z"/><path class="cls-24" d="M249.16,109.38a13.08,13.08,0,0,0,4.56,3.43l-2.07,3-3.6-5.11Z"/><path class="cls-5" d="M253.72,112.81l1.62,2.46a3.38,3.38,0,0,1-3.28-.06Z"/><path class="cls-14" d="M258.83,110a219.14,219.14,0,0,0-1.76,28.49c.28,13.18,4.56,37.9,4.56,37.9s7.63-.75,9.53-3.13c0,0-4.38-23.79-4.26-27.32s5.61-30,5.61-30S270.37,113,258.83,110Z"/><path class="cls-14" d="M247.88,110.75s0,14.5-.3,27.69-2,37.72-2,37.72-8.95-1.27-10.85-3.66c0,0,3.16-23.08,3-26.61s-4-29.79-4-29.79S235.06,114.17,247.88,110.75Z"/><path class="cls-5" d="M253,114.65s-2.41,8.19-2.62,24.47.3,20.95.3,20.95l1.87,3.7,2.5-3.87s-.8-37.45-.34-45Z"/><path class="cls-14" d="M237.5,114.35a6.73,6.73,0,0,0-5.29,3.8c-1.71,3.56-2.36,6.53-2.81,7.42s-6.62,12.63-7,15.23.23,7.35,3.5,8.62,15,1.41,15,1.41-3-6-.22-9.16c0,0-8.52-1.54-10.54-1.74S240.2,117,237.5,114.35Z"/><polygon class="cls-25" points="257.01 124.43 241.14 161.5 221.36 152.18 235.99 116.58 257.01 124.43"/><path class="cls-12" d="M247.91,142.64s2.14.57,2.82.67-.16,1.36-1,1.4S247.91,142.64,247.91,142.64Z"/><path class="cls-12" d="M246.46,153.19a4.45,4.45,0,0,1-1.42-.29s-.74-.48-1.29-.8c-.17-.09-.33-.18-.43-.22a8.39,8.39,0,0,1-2.39-1.16c-.93-.73-4-3.62-4-3.62l2-3,1.55-2.41s6.52.18,7.47.75l.26.18a11,11,0,0,1,1.44,1.64c.13.13,1.36,1.47,1.29,2a1.78,1.78,0,0,1-.94,1.45,4.25,4.25,0,0,1-1,2.1,2.65,2.65,0,0,1-1.38,1.89S247.28,153,246.46,153.19Z"/><path class="cls-14" d="M240.68,141.67s-9.66-1.73-12.33-2a32.82,32.82,0,0,1,.3-6.26,24.55,24.55,0,0,1,2.85-6.73l-4.94,4.53s-4.06,7.78-4.16,9.6-.57,4.63,1.84,7.48S238,149.82,238,149.82,237,146.33,240.68,141.67Z"/><path class="cls-12" d="M242.23,88.69s-2.39,4.42-1.21,5.1c1,.57-1.14,4.91-1.42,5.62s1.77,1.23,2.2,1.68,1.73,6.07,3.41,6.24,9.29-2.47,11.35-4.62,3.77-11.86,2.39-16S246.43,81,242.23,88.69Z"/><path class="cls-15" d="M241.75,89.64a6.79,6.79,0,0,1,2-8.31c4.42-3.55,12.57,2.67,13.49,2.91s6.14.59,3.5,9.75c-2.26,7.86-2.57,8.19-2.57,8.19s-1.69-4.55-2.65-5.25c-1.49-1.08-4.76-.82-4.76-.82s1.56-4.14-.88-4.73S244.22,88.73,241.75,89.64Z"/><path class="cls-12" d="M253.34,93.74c.22-.57.91-3,3-1.58s-1.31,6-1.67,6.1S251.53,98.52,253.34,93.74Z"/><rect class="cls-26" x="185.72" y="79.49" width="23" height="7.59" transform="translate(280.5 -113.93) rotate(90)"/><rect class="cls-26" x="173.36" y="79.49" width="23" height="7.59" transform="translate(268.14 -101.57) rotate(90)"/><path class="cls-26" d="M203.36,101.18H178.71a6.67,6.67,0,0,1-6.66-6.66V72.05a6.67,6.67,0,0,1,6.66-6.66h24.65A6.67,6.67,0,0,1,210,72.05V94.52A6.67,6.67,0,0,1,203.36,101.18ZM178.71,66.39a5.67,5.67,0,0,0-5.66,5.66V94.52a5.67,5.67,0,0,0,5.66,5.66h24.65A5.67,5.67,0,0,0,209,94.52V72.05a5.67,5.67,0,0,0-5.67-5.66Z"/><path class="cls-22" d="M159,47.46a13.38,13.38,0,0,0,13.38,13.38A13.38,13.38,0,0,0,159,74.22a13.38,13.38,0,0,0-13.38-13.38A13.38,13.38,0,0,0,159,47.46Z"/><path class="cls-26" d="M173.2,46.13a5.65,5.65,0,0,0,5.65,5.65,5.65,5.65,0,0,0-5.65,5.65,5.65,5.65,0,0,0-5.65-5.65A5.65,5.65,0,0,0,173.2,46.13Z"/><path class="cls-5" d="M218.45,89.14a5.64,5.64,0,0,0,5.64,5.64,5.64,5.64,0,0,0-5.64,5.65,5.65,5.65,0,0,0-5.65-5.65A5.65,5.65,0,0,0,218.45,89.14Z"/><path class="cls-5" d="M164.58,84.54a1.26,1.26,0,1,1,1.26-1.26A1.25,1.25,0,0,1,164.58,84.54Zm0-2a.76.76,0,1,0,.76.75A.76.76,0,0,0,164.58,82.53Z"/><path class="cls-21" d="M195.81,53.79a2.41,2.41,0,1,1,2.41-2.41A2.41,2.41,0,0,1,195.81,53.79Zm0-3.87a1.46,1.46,0,1,0,1.46,1.46A1.46,1.46,0,0,0,195.81,49.92Z"/><path class="cls-5" d="M141.28,73a1.26,1.26,0,1,1,1.26-1.25A1.25,1.25,0,0,1,141.28,73Zm0-2a.76.76,0,1,0,.76.76A.76.76,0,0,0,141.28,71Z"/><path class="cls-22" d="M180.37,46.72a1.26,1.26,0,0,1,0-2.51,1.26,1.26,0,1,1,0,2.51Zm0-2a.76.76,0,1,0,.76.76A.76.76,0,0,0,180.37,44.71Z"/><path class="cls-5" d="M152.84,87.49h-.53V87a.38.38,0,1,0-.75,0v.52H151a.38.38,0,0,0,0,.75h.52v.52a.38.38,0,1,0,.75,0v-.52h.53a.38.38,0,0,0,0-.75Z"/><path class="cls-22" d="M217.89,46.9h-.8v-.79a.56.56,0,1,0-1.11,0v.79h-.8a.56.56,0,0,0,0,1.12h.8v.79a.56.56,0,1,0,1.11,0V48h.8a.56.56,0,0,0,0-1.12Z"/><path class="cls-6" d="M238.43,148.11h-.53v-.53a.37.37,0,0,0-.74,0v.53h-.53a.38.38,0,0,0,0,.75h.53v.52a.37.37,0,0,0,.74,0v-.52h.53a.38.38,0,0,0,0-.75Z"/><path class="cls-22" d="M219.35,71.41h-.53v-.52a.38.38,0,0,0-.75,0v.52h-.52a.38.38,0,1,0,0,.75h.52v.53a.38.38,0,0,0,.75,0v-.53h.53a.38.38,0,0,0,0-.75Z"/></g><path class="cls-27" d="M93.62,1.5H308.56a0,0,0,0,1,0,0V216.44a92.12,92.12,0,0,1-92.12,92.12H93.62A92.12,92.12,0,0,1,1.5,216.44V93.62A92.12,92.12,0,0,1,93.62,1.5Z" transform="translate(310.06) rotate(90)"/></g></g></svg>