<svg id="Layer_1" data-name="Layer 1" xmlns="http://www.w3.org/2000/svg" xmlns:xlink="http://www.w3.org/1999/xlink" viewBox="0 0 310.06 310.06"><defs><style>.cls-1,.cls-2{opacity:0.25;}.cls-1{fill:url(#linear-gradient);}.cls-2{fill:url(#linear-gradient-2);}.cls-3{fill:none;stroke-miterlimit:10;stroke-width:3px;stroke:url(#linear-gradient-3);}.cls-4{fill:#e0e0e0;}.cls-5{fill:#79a4e9;}.cls-6{fill:#1c67da;}.cls-7{fill:#ffc328;}.cls-8{fill:#a5c3f1;}.cls-9{fill:#feaf84;}.cls-10{fill:#0b0b3a;}.cls-11{fill:#b03d44;opacity:0.45;}.cls-12{fill:gray;}.cls-13{fill:#fff;}.cls-14{opacity:0.3;}.cls-15{fill:url(#linear-gradient-4);}.cls-16{fill:#0c53bc;}.cls-17{fill:#d2e1f8;}</style><linearGradient id="linear-gradient" x1="162.57" y1="261.52" x2="162.57" y2="51.92" gradientTransform="translate(-7.54 0.58)" gradientUnits="userSpaceOnUse"><stop offset="0" stop-color="#d2e1f8"/><stop offset="1" stop-color="#a5c3f1"/></linearGradient><linearGradient id="linear-gradient-2" x1="161.99" y1="263.8" x2="161.99" y2="34.97" xlink:href="#linear-gradient"/><linearGradient id="linear-gradient-3" x1="8738.02" y1="-863.21" x2="9048.08" y2="-863.21" gradientTransform="translate(-8738.02 1018.23)" gradientUnits="userSpaceOnUse"><stop offset="0" stop-color="#5e81f4"/><stop offset="1" stop-color="#1c67da"/></linearGradient><linearGradient id="linear-gradient-4" x1="36.59" y1="190.05" x2="125.95" y2="190.05" gradientTransform="matrix(1, 0, 0, 1, 0, 0)" xlink:href="#linear-gradient-3"/></defs><title>F1</title><path class="cls-1" d="M283.25,139.52c-15.18-43.3-68.54-26.34-100.92-29.35-34.88-3.24-17.54-25.55-63-42.76C77.58,51.62,13.36,100.4,25.1,175.15c14.5,92.27,154,106.06,211.7,69.7,40.43-25.47,49.1-66.08,49.55-84.72A57.92,57.92,0,0,0,283.25,139.52Z"/><path class="cls-2" d="M250.39,64.11a58,58,0,0,0-17.26-11.68C191,34.28,167.33,85,143.18,106.81c-26,23.46-31.83,6.91-76.39,26.43S12.73,242.84,90,260.8C195.52,285.35,257.47,215.44,272.79,155,284.71,108,263.81,77.07,250.39,64.11Z"/><path class="cls-3" d="M93.62,1.5H308.56a0,0,0,0,1,0,0V216.44a92.12,92.12,0,0,1-92.12,92.12H93.62A92.12,92.12,0,0,1,1.5,216.44V93.62A92.12,92.12,0,0,1,93.62,1.5Z" transform="translate(0 310.06) rotate(-90)"/><path class="cls-4" d="M266.79,179.84a1.29,1.29,0,0,1-.21-.31l-.53-.84c-.44-.73-1.06-1.75-1.79-3l.17,0-4.18,2.43s.09-.35.05-.19h0v0l0,0,0,.08.08.14.16.28.33.56.62,1.09,1.13,2-.16,0c1.24-.7,2.28-1.28,3-1.68l.88-.47a2.92,2.92,0,0,1,.34-.17s-.08.07-.27.19l-.82.51c-.72.44-1.77,1.08-3,1.82l-.11.06-.06-.1c-.35-.61-.74-1.27-1.15-2l-.63-1.08-.32-.56-.17-.28-.08-.15,0-.07,0,0v0h0c-.05.17.06-.23.05-.19l4.2-2.4.1-.06.06.1c.73,1.29,1.32,2.36,1.72,3.1.18.34.33.63.46.86A2.05,2.05,0,0,1,266.79,179.84Z"/><path class="cls-4" d="M225.26,161.31c0-.05,1.66-1.85,3.82-4a54.79,54.79,0,0,1,4-3.82c.05.06-1.66,1.85-3.83,4S225.31,161.36,225.26,161.31Z"/><path class="cls-4" d="M233.1,161.31a54.79,54.79,0,0,1-4-3.82c-2.16-2.17-3.87-4-3.82-4s1.85,1.66,4,3.82S233.15,161.26,233.1,161.31Z"/><path class="cls-5" d="M153.6,118.81a53.17,53.17,0,0,1,3.82-4,53.17,53.17,0,0,1,4-3.82c.06,0-1.66,1.85-3.82,4S153.65,118.87,153.6,118.81Z"/><path class="cls-5" d="M161.43,118.81c-.05.06-1.85-1.66-4-3.82a53.17,53.17,0,0,1-3.82-4,53.17,53.17,0,0,1,4,3.82C159.77,117,161.49,118.76,161.43,118.81Z"/><path class="cls-6" d="M142.86,50.24a38.74,38.74,0,0,1-.55-4.74,40.39,40.39,0,0,1-.28-4.76,43.26,43.26,0,0,1,.55,4.74A43,43,0,0,1,142.86,50.24Z"/><path class="cls-6" d="M147.19,45.07a40.51,40.51,0,0,1-4.74.55,40.3,40.3,0,0,1-4.76.28,41.24,41.24,0,0,1,4.74-.55A43.15,43.15,0,0,1,147.19,45.07Z"/><path class="cls-7" d="M98.92,102.28a1.62,1.62,0,0,0-.1-.15l-.26-.42-.94-1.58c-.82-1.38-2-3.3-3.3-5.6l.16,0L86.69,99.1s.09-.36,0-.19h0l0,0,0,.06.07.14.16.26.3.53.6,1,1.16,2,2.12,3.69-.17,0,5.66-3.2,1.61-.89.43-.24c.1,0,.16-.08.16-.07s-.17.11-.52.33l-1.56.94-5.66,3.33-.1.06-.06-.1-2.14-3.67-1.16-2-.61-1-.3-.53-.16-.27-.07-.13,0-.07,0,0v0h0c0,.17.06-.23,0-.19l7.81-4.49.1-.06.06.11c1.33,2.34,2.44,4.31,3.23,5.71.37.67.67,1.2.88,1.59A3.89,3.89,0,0,1,98.92,102.28Z"/><path class="cls-4" d="M271.26,152.94s-.07-.18-.24-.46a2,2,0,0,0-1-.87,2,2,0,1,0,.81,3.11,2.1,2.1,0,0,0,.48-1.26c0-.33,0-.52,0-.52a1,1,0,0,1,.12.52,2.06,2.06,0,0,1-.42,1.38,2.22,2.22,0,0,1-1.95.86,2.23,2.23,0,1,1,1.06-4.27,2.13,2.13,0,0,1,1.05,1A1,1,0,0,1,271.26,152.94Z"/><path class="cls-8" d="M184.87,38a5,5,0,0,1-.24-.46,2.09,2.09,0,0,0-1-.87,2,2,0,1,0,.81,3.1,2.11,2.11,0,0,0,.47-1.26,4.9,4.9,0,0,1,0-.51,1.16,1.16,0,0,1,.12.51,2.12,2.12,0,0,1-.43,1.38,2.19,2.19,0,0,1-1.95.87,2.24,2.24,0,0,1-1.06-4.08,2.21,2.21,0,0,1,2.12-.19,2.13,2.13,0,0,1,1.05,1A1.09,1.09,0,0,1,184.87,38Z"/><path d="M75.06,87.93s-.07-.18-.24-.46a2.09,2.09,0,0,0-1-.87,2,2,0,1,0-1,3.84,2,2,0,0,0,1.77-.73,2.11,2.11,0,0,0,.48-1.27c0-.33,0-.51,0-.51a1,1,0,0,1,.12.51,2,2,0,0,1-.42,1.38,2.2,2.2,0,0,1-2,.87,2.24,2.24,0,0,1-1.07-4.08,2.23,2.23,0,0,1,2.13-.19,2.13,2.13,0,0,1,1,1A1.14,1.14,0,0,1,75.06,87.93Z"/><path class="cls-4" d="M248.05,146.12a3.55,3.55,0,0,1-.28-.48l-.78-1.45c-.67-1.25-1.64-3-2.73-5.15l-.11-.21.23,0,3.9.24,4.05.27.22,0-.12.18c-1.27,2-2.39,3.62-3.16,4.78l-.9,1.34a3.88,3.88,0,0,1-.32.44s.11-.2.31-.53l.87-1.41c.74-1.19,1.76-2.85,3-4.76l.1.2-4-.25-3.91-.26.13-.19c1,2.05,1.92,3.83,2.55,5.12l.74,1.51Z"/><path class="cls-6" d="M188.29,66.41s-.09-.16-.27-.49l-.78-1.44c-.68-1.25-1.64-3-2.74-5.16l-.1-.2.23,0,3.9.24,4.05.27h.21l-.12.19c-1.27,2-2.38,3.62-3.16,4.78l-.9,1.33a3.64,3.64,0,0,1-.32.45s.11-.2.32-.53l.86-1.41c.74-1.19,1.77-2.85,3-4.76l.1.2-4.05-.26-3.9-.26.12-.18c1.05,2,1.92,3.83,2.55,5.11l.74,1.52C188.2,66.2,188.29,66.4,188.29,66.41Z"/><path class="cls-4" d="M147.72,164.12a3.83,3.83,0,0,1,.29-.47l.9-1.37c.78-1.18,1.9-2.88,3.25-4.86l.1-.15.11.15,2.51,3.72,2,2.91.14.2h-.25c-2.64,0-4.93,0-6.52-.07l-1.85,0a4.43,4.43,0,0,1-.63,0l.71,0,1.89,0c1.61,0,3.83-.06,6.4-.07l-.11.21c-.61-.91-1.27-1.9-2-2.91l-2.49-3.72h.21c-1.32,1.9-2.47,3.52-3.3,4.68-.4.56-.73,1-1,1.37S147.73,164.12,147.72,164.12Z"/><path class="cls-8" d="M196.42,161.4h1.11a32.39,32.39,0,0,1,32.39,32.39v38.75a0,0,0,0,1,0,0H164a0,0,0,0,1,0,0V193.79A32.39,32.39,0,0,1,196.42,161.4Z"/><path class="cls-9" d="M113.56,214l-3.32,2.35-3.69,8.85a1.5,1.5,0,0,0,1.78-.05,59.31,59.31,0,0,0,3.73-5.85l0,3a2.44,2.44,0,0,0,2.16,2.41l5.46,1.7,6.71-1.91.57-8Z"/><path class="cls-10" d="M173.11,155.21c-1.64-.48-2.44-2.36-2.59-4.06s.13-3.45-.33-5.1a18,18,0,0,1-1.12-3.45c-.09-1.3.54-2.56.57-3.87.05-1.82-1-3.52-1.08-5.34,0-2.53.42-6.7,2.94-6.56s6.58,4.57,6.26,7.07"/><path class="cls-9" d="M197,134.3l0,2.52-.51,37.76a8.1,8.1,0,0,1-8.57,7.72h0c-4.74-.1-8.59-3.77-8.6-8.2,0-4.65-.12-9.54-.12-9.54s-6-1-7.23-8.81c-.61-3.88-.42-10.25-.09-15.46a8.25,8.25,0,0,1,9.1-7.69Z"/><path class="cls-11" d="M179.13,164.56a19.89,19.89,0,0,0,10.47-2.79s-2.54,5.37-10.36,4.64Z"/><path class="cls-10" d="M202.57,133.86a9.88,9.88,0,0,0-7.09-6,9.18,9.18,0,0,0-5.74.78,8.75,8.75,0,0,1-1.77-1.51,15.62,15.62,0,0,0-6.69-4,11.08,11.08,0,0,0-7.67.6,8.65,8.65,0,0,0-4.73,5.92,7.12,7.12,0,0,0,2.54,7,6.09,6.09,0,0,0,7.29-.06,2.4,2.4,0,0,0,2,2.44,4.31,4.31,0,0,0,3.25-.95,24.63,24.63,0,0,0,2.5-2.4q.47-.45,1-.87a9.41,9.41,0,0,0,6.58,5.26,4,4,0,0,0-.46,3.81,13.3,13.3,0,0,1,1,3.88,19.83,19.83,0,0,1-.72,3.28,7.2,7.2,0,0,0,.64,4.56c.27.54.6,1.29.9,1.82.53.93.53.93,1.3,1.17,1.61.5,4.39-5.35,5.11-7.67.6-1.93.83-5.41,1.53-7.31C204.51,140.21,203.75,136.87,202.57,133.86Z"/><path class="cls-6" d="M166.19,217.19l.89,2.22-1.75,20.25H210l-2-6.06,5.56.29c8.57.43,15.57-7.23,13.9-15.65-.05-.25-.1-.5-.17-.75-2.77-10.84-6.54-25.4-7.86-29.7a20.87,20.87,0,0,0-7-10.49h-.08c-6.68-5.46-15.79-5.94-15.79-5.94l-3.36,2.25a11.67,11.67,0,0,1-11.32.93,5.09,5.09,0,0,1-2.77-3.18h0a39.31,39.31,0,0,0-11.4,3,16.77,16.77,0,0,0-8.84,9.87L147.22,218.4l-19.88-2.69-4.25,11.61,20.14,4.8a16.46,16.46,0,0,0,19.14-7.91l3.82-7m37.18,2.73h0s1.91-7.32,3.07-11.26l2.82,11.08Z"/><path class="cls-12" d="M168.67,187.42a1.14,1.14,0,0,1,0,.32c0,.22,0,.54,0,.95a16.39,16.39,0,0,1-.61,3.4,49.94,49.94,0,0,1-1.75,4.81,32.22,32.22,0,0,0-1.92,5.93,17.59,17.59,0,0,0,0,6.18,33.88,33.88,0,0,0,1.21,5c.44,1.38.83,2.49,1.1,3.26l.31.89a1.25,1.25,0,0,1,.09.31,1.11,1.11,0,0,1-.14-.29q-.13-.34-.36-.87c-.3-.76-.72-1.86-1.19-3.24a32.76,32.76,0,0,1-1.27-5,17.37,17.37,0,0,1,0-6.27,31.43,31.43,0,0,1,2-6c.73-1.78,1.38-3.38,1.79-4.78a16.84,16.84,0,0,0,.69-3.35C168.64,187.87,168.64,187.42,168.67,187.42Z"/><path class="cls-13" d="M167.07,218.85c-.28,0-.4-.29-.51-.56l-.36-.87c-.29-.72-.72-1.83-1.2-3.26a33.8,33.8,0,0,1-1.3-5,18.19,18.19,0,0,1,0-6.43,31.48,31.48,0,0,1,1.91-5.86l.07-.18c.7-1.71,1.37-3.35,1.78-4.74a15.84,15.84,0,0,0,.67-3.27c0-.38,0-.68.06-.89,0-.39,0-.76.46-.76a.41.41,0,0,1,.28.11c.16.13.16.27.17.63V188a5.06,5.06,0,0,1,0,.77,15.83,15.83,0,0,1-.62,3.48c-.42,1.49-1.1,3.22-1.76,4.87l-.1.23a31.82,31.82,0,0,0-1.8,5.61,16.91,16.91,0,0,0,0,6,33.51,33.51,0,0,0,1.19,4.88c.39,1.23.75,2.25,1,3l.39,1.15c.11.33.23.7-.15.85Z"/><g class="cls-14"><path d="M203.58,195.38s-4.44,19.61-4.37,21.53a10.56,10.56,0,0,0,.46,3l3.7,0,0-.36,3.11-11.1Z"/></g><path class="cls-9" d="M164.93,220.63l-2.9-1.18s-3.36-5.7-4.05-5.43-.79,2,.58,4.65l-3.8-.86s-7.91,4.2-7.52,4.68a1.87,1.87,0,0,0,2.83.65c1.72-1,4-2.2,4-2.2l4.44,1-5.6,1-5,5.12a2.6,2.6,0,0,0,3.24-.26L165,230h5.9l.32-7.8Z"/><path class="cls-11" d="M151.09,227.84c.07,0,.3-.39.76-1a4.51,4.51,0,0,1,1-.84,4.31,4.31,0,0,1,1.47-.47,21.72,21.72,0,0,0,4.1-.93,20.39,20.39,0,0,0-4.18.51,4.07,4.07,0,0,0-1.6.56,3.69,3.69,0,0,0-1,1A2.58,2.58,0,0,0,151.09,227.84Z"/><path class="cls-11" d="M153.28,228.27c.05,0,.08-.29.46-.39s1-.2,1.66-.31a14.24,14.24,0,0,0,2.41-.38,4.88,4.88,0,0,0-2.47,0,7.1,7.1,0,0,0-1.72.45.68.68,0,0,0-.39.45C153.2,228.2,153.26,228.28,153.28,228.27Z"/><path class="cls-11" d="M164.54,220.47a8.84,8.84,0,0,1-1.39-.39c-.85-.26-2-.59-3.36-.93l-3.38-.85a8,8,0,0,1-1.39-.42,7.45,7.45,0,0,1,1.43.24c.88.18,2.09.43,3.41.77a33.86,33.86,0,0,1,3.35,1A6.37,6.37,0,0,1,164.54,220.47Z"/><path class="cls-5" d="M244.45,118a3.36,3.36,0,0,1,.41-.46l1.18-1.18c1-1,2.41-2.34,4-3.82l0,0v.2c-1.57-1.45-3-2.78-4-3.75l-1.19-1.15a2.77,2.77,0,0,1-.41-.46,2.23,2.23,0,0,1,.48.38l1.25,1.09c1,.93,2.48,2.24,4,3.69l.11.1-.11.1,0,0c-1.56,1.49-3,2.82-4,3.77l-1.24,1.12C244.64,117.86,244.47,118,244.45,118Z"/><path class="cls-5" d="M232.32,107.32s-.13.18-.4.46L230.73,109c-1,1-2.4,2.34-4,3.82l0,0v-.2c1.57,1.46,3,2.78,4,3.75l1.19,1.16a2.35,2.35,0,0,1,.41.45,2.55,2.55,0,0,1-.48-.37l-1.25-1.1c-1-.93-2.47-2.23-4-3.69l-.11-.1.1-.1,0,0c1.56-1.48,3-2.81,4-3.76l1.24-1.12A3.69,3.69,0,0,1,232.32,107.32Z"/><path class="cls-5" d="M235.44,120.49c-.07,0,1.2-3.59,2.84-8s3-7.89,3.1-7.86-1.2,3.59-2.84,8S235.51,120.52,235.44,120.49Z"/><path class="cls-12" d="M258.24,128.12s0-.21,0-.6,0-1,0-1.71c0-1.51,0-3.7,0-6.5,0-5.59,0-13.58-.06-23.21l.12.11-39.46,0h0l.14-.13c0,11.57,0,22.51,0,32l-.12-.12,28.49.06,8.08,0,2.14,0h0l-2.12,0-8.05,0-28.57.06h-.12v-.12c0-9.51,0-20.45,0-32V96h.14l39.46,0h.11v.12c0,9.66,0,17.68-.06,23.29,0,2.78,0,5,0,6.46,0,.74,0,1.31,0,1.7S258.24,128.12,258.24,128.12Z"/><path class="cls-5" d="M218.66,128.67a.41.41,0,0,1-.3-.12.44.44,0,0,1-.13-.31V96a.42.42,0,0,1,.42-.43l39.71,0a.41.41,0,0,1,.43.43v.11l-.1,31.45c0,.39,0,.59,0,.59a.41.41,0,0,1-.36.4h-.23l-10.72.06-28.69.06Zm.67-1.1,38.47.11v-.15l-.05-12-.05-18.85-38.36,0Z"/><path class="cls-12" d="M258.55,100.85c0,.07-8.91.14-19.89.14s-19.9-.07-19.9-.14,8.91-.14,19.9-.14S258.55,100.77,258.55,100.85Z"/><path class="cls-5" d="M238.66,101.41c-5.5,0-10.47,0-14.07,0-3.39,0-4.94,0-5.65-.11h-.1c-.5-.08-.5-.19-.5-.4s0-.33.5-.4v0h.09c.71-.08,2.26-.09,5.65-.12,3.6,0,8.57,0,14.07,0s10.46,0,14.06,0c3.39,0,4.94,0,5.65.12h.09v0c.5.07.5.19.5.4s0,.32-.5.4h-.1c-.71.08-2.26.09-5.65.11C249.12,101.4,244.15,101.41,238.66,101.41Z"/><path class="cls-5" d="M222,98.51a.53.53,0,1,1-.53-.53A.53.53,0,0,1,222,98.51Z"/><path class="cls-5" d="M223.94,98.51a.54.54,0,1,1-.53-.53A.53.53,0,0,1,223.94,98.51Z"/><path class="cls-5" d="M225.87,98.51a.53.53,0,1,1-.53-.53A.53.53,0,0,1,225.87,98.51Z"/><rect class="cls-7" x="122.89" y="57.09" width="31.18" height="22.22"/><path class="cls-13" d="M154.31,60.39c0,.08-7,.14-15.72.14s-15.72-.06-15.72-.14,7-.14,15.72-.14S154.31,60.31,154.31,60.39Z"/><path class="cls-13" d="M125.43,58.77a.42.42,0,0,1-.84,0,.42.42,0,0,1,.84,0Z"/><path class="cls-13" d="M127,58.77a.42.42,0,0,1-.84,0,.42.42,0,0,1,.84,0Z"/><ellipse class="cls-13" cx="128.07" cy="58.77" rx="0.42" ry="0.37"/><path class="cls-13" d="M129.76,73.28a2.77,2.77,0,0,1-1.1-1.17,3.8,3.8,0,0,1-.39-1.76V67.88a3.83,3.83,0,0,1,.39-1.76,2.83,2.83,0,0,1,1.1-1.17,3.15,3.15,0,0,1,1.64-.42,3.08,3.08,0,0,1,1.42.32,2.91,2.91,0,0,1,1.08.89,3.21,3.21,0,0,1,.59,1.33h-.89a2.34,2.34,0,0,0-.48-.89,2.47,2.47,0,0,0-.79-.61,2.18,2.18,0,0,0-.93-.21,2.08,2.08,0,0,0-2,1.2,3.05,3.05,0,0,0-.28,1.32v2.47a3.05,3.05,0,0,0,.28,1.32,2.08,2.08,0,0,0,.79.89,2.22,2.22,0,0,0,1.17.31,2.33,2.33,0,0,0,1.72-.8,2.25,2.25,0,0,0,.48-.92h.89a3.26,3.26,0,0,1-.59,1.34,3,3,0,0,1-1.09.89,3.34,3.34,0,0,1-3.05-.1Z"/><path class="cls-13" d="M141.05,69.05v.83h-5v-.83ZM139,72h-.89V67H139Z"/><path class="cls-13" d="M147.74,69.05v.83h-5v-.83ZM145.67,72h-.88V67h.88Z"/><path class="cls-5" d="M84.19,141.19a.75.75,0,0,0,0-.11v-.29c0-.27,0-.64,0-1.12,0-1,0-2.43,0-4.25,0-3.64,0-8.83-.06-15l.12.11-20.81,0,.14-.13h0v2.83c0,.93,0,1.86,0,2.78v5.38c0,3.49,0,6.79,0,9.82l-.12-.12,15.05.06,4.24,0h0l-4.22,0-15.12.07h-.12v-.12c0-3,0-6.33,0-9.82,0-1.75,0-3.54,0-5.38v-5.61h0l.14-.14,20.81,0h.12v.12c0,6.24,0,11.45-.06,15.12,0,1.8,0,3.23,0,4.21l0,1.11v.28A.62.62,0,0,0,84.19,141.19Z"/><path class="cls-5" d="M84.19,120.59S79.64,125.32,73.91,131s-10.42,10.31-10.48,10.26,4.55-4.73,10.28-10.45S84.14,120.53,84.19,120.59Z"/><path class="cls-5" d="M83.86,141.06c0,.05-4.64-4.49-10.25-10.14s-10.1-10.28-10-10.33,4.64,4.48,10.25,10.14S83.91,141,83.86,141.06Z"/><path class="cls-5" d="M127.57,126c0,.08-8.27.14-18.46.14S90.64,126,90.64,126s8.27-.14,18.47-.14S127.57,125.88,127.57,126Z"/><path class="cls-5" d="M127.57,129.28c0,.07-8.27.13-18.46.13s-18.47-.06-18.47-.13,8.27-.14,18.47-.14S127.57,129.2,127.57,129.28Z"/><path class="cls-5" d="M127.57,132.6c0,.07-8.27.13-18.46.13s-18.47-.06-18.47-.13,8.27-.14,18.47-.14S127.57,132.52,127.57,132.6Z"/><path class="cls-5" d="M127.57,135.91c0,.08-8.27.14-18.46.14s-18.47-.06-18.47-.14,8.27-.13,18.47-.13S127.57,135.84,127.57,135.91Z"/><path class="cls-5" d="M107.35,122.64c0,.08-3.8.14-8.49.14s-8.49-.06-8.49-.14,3.8-.14,8.49-.14S107.35,122.57,107.35,122.64Z"/><path class="cls-12" d="M56.83,114.1H63l17.32,0,60.15.1h.13v33.19H133l.14-.13v7.15l-.24-.23-6.82-6.83.09,0-69.31,0h-.1v-.09c0-10.34,0-18.63.05-24.35,0-2.85,0-5,0-6.55,0-.74,0-1.31,0-1.69s0-.57,0-.57,0,.2,0,.59,0,1,0,1.7c0,1.51,0,3.72,0,6.57,0,5.71,0,14,.05,24.3l-.09-.1,69.31,0h.06l0,0,6.83,6.83-.24.09v-7h7.66l-.14.14c0-11.54,0-22.67,0-32.93l.12.13-60-.23-17.35-.08-4.64,0H56.83Z"/><path class="cls-5" d="M133.11,154.84a.4.4,0,0,1-.31-.13l-6.89-6.89-69.18,0a.43.43,0,0,1-.43-.43l.09-32.69c0-.38,0-.58,0-.58a.42.42,0,0,1,.24-.37h0a.47.47,0,0,1,.17,0H80.34l60.28.11a.42.42,0,0,1,.42.42v33.19a.43.43,0,0,1-.43.43h-7.09v6.59a.44.44,0,0,1-.26.4A.45.45,0,0,1,133.11,154.84Zm-7-8.15a.57.57,0,0,1,.36.13l5.91,5.9v-5.6a.43.43,0,0,1,.43-.43h7.09v-31.8l-63.86-.25-18.81-.1v.14l0,8.28.05,23.78,68.79-.05Z"/><rect class="cls-5" x="40.14" y="159.61" width="89.35" height="60.88" rx="12"/><polygon class="cls-5" points="69.88 206.02 64.94 234.03 88.15 234.03 92.36 205.45 69.88 206.02"/><rect class="cls-15" x="36.59" y="159.61" width="89.35" height="60.88" rx="12"/><rect class="cls-5" x="108.87" y="228.96" width="50.83" height="3.58"/><path class="cls-6" d="M97.5,227.58h.93a4.88,4.88,0,0,1,4.88,4.88v.08a0,0,0,0,1,0,0H92.63a0,0,0,0,1,0,0v-.08a4.88,4.88,0,0,1,4.88-4.88Z"/><path class="cls-5" d="M103.16,231.43a49.91,49.91,0,0,1-5.15.14,49.74,49.74,0,0,1-5.15-.14,46.59,46.59,0,0,1,5.15-.14A46.74,46.74,0,0,1,103.16,231.43Z"/><path class="cls-5" d="M98.09,227.54a6.93,6.93,0,0,1,.08,1.89,6.62,6.62,0,0,1-.18,1.88,6.27,6.27,0,0,1-.09-1.89A6.6,6.6,0,0,1,98.09,227.54Z"/><rect class="cls-8" x="32.8" y="232.54" width="244.45" height="7.11"/><rect class="cls-16" x="163.67" y="80.08" width="43.54" height="31.04"/><path class="cls-13" d="M207.55,84.68c0,.08-9.83.14-22,.14s-21.95-.06-21.95-.14,9.83-.13,21.95-.13S207.55,84.61,207.55,84.68Z"/><path class="cls-13" d="M167.22,82.42a.59.59,0,1,1-.58-.51A.55.55,0,0,1,167.22,82.42Z"/><path class="cls-13" d="M169.36,82.42a.59.59,0,1,1-.59-.51A.55.55,0,0,1,169.36,82.42Z"/><path class="cls-13" d="M171.5,82.42a.6.6,0,1,1-.59-.51A.56.56,0,0,1,171.5,82.42Z"/><path class="cls-13" d="M170.61,92.81h1.53v9h-1.53Zm.71,4h1.59a.55.55,0,0,0,.32-.09.53.53,0,0,0,.21-.25,1,1,0,0,0,.08-.4v-1a1.32,1.32,0,0,0-.07-.42.61.61,0,0,0-.21-.26.58.58,0,0,0-.33-.09h-1.59V92.81H173a2.52,2.52,0,0,1,1.14.24,1.53,1.53,0,0,1,.72.68,2.24,2.24,0,0,1,.25,1.1v1.51a2.19,2.19,0,0,1-.25,1.06,1.66,1.66,0,0,1-.73.68,2.62,2.62,0,0,1-1.13.23h-1.64Z"/><path class="cls-13" d="M178.61,98.35v3.44h-1.53V98.35l-1.69-5.54H177l.84,3.72.8-3.72h1.6Z"/><path class="cls-13" d="M180,92.81h4.49v1.47H180Zm1.48.76H183v8.22h-1.53Z"/><path class="cls-13" d="M185,92.81h1.53v9H185Zm.72,3.84h3v1.44h-3Zm2-3.84h1.53v9h-1.53Z"/><path class="cls-13" d="M191.38,101.64a1.75,1.75,0,0,1-.79-.73,2.24,2.24,0,0,1-.27-1.14V94.83a2.29,2.29,0,0,1,.27-1.14,1.68,1.68,0,0,1,.79-.72,2.77,2.77,0,0,1,1.24-.25,2.8,2.8,0,0,1,1.24.25,1.7,1.7,0,0,1,.78.72,2.29,2.29,0,0,1,.27,1.14v4.94a2.24,2.24,0,0,1-.27,1.14,1.78,1.78,0,0,1-.78.73,3,3,0,0,1-1.24.25A2.91,2.91,0,0,1,191.38,101.64Zm1.64-1.38a.65.65,0,0,0,.26-.26.93.93,0,0,0,.08-.42V95a.93.93,0,0,0-.08-.42.65.65,0,0,0-.26-.26.85.85,0,0,0-.4-.1.82.82,0,0,0-.4.1.59.59,0,0,0-.26.26.93.93,0,0,0-.08.42v4.56a.93.93,0,0,0,.08.42.59.59,0,0,0,.26.26.82.82,0,0,0,.4.09A.84.84,0,0,0,193,100.26Z"/><path class="cls-13" d="M196,92.81h1.21l2.11,6-.17.24V92.81h1.4v9h-1.22l-2.08-5.65.16-.25v5.9H196Z"/><path class="cls-17" d="M248.5,73.6s0-.14,0-.41V72c0-1.05,0-2.57,0-4.51,0-3.89,0-9.47-.05-16.29l.11.11-34.67,0h0l.13-.14c0,7.95,0,15.53,0,22.39l-.12-.12,24.94.06,7.15,0,1.91,0h.67s-.05,0-.16,0H246l-7.12,0-25,.06h-.13V73.6c0-6.86,0-14.44,0-22.39v-.13h.14l34.67,0h.1v.11c0,6.85,0,12.45,0,16.36,0,1.93,0,3.44,0,4.48v1.16C248.5,73.48,248.5,73.6,248.5,73.6Z"/><path class="cls-17" d="M248.5,54.53c0,.08-7.77.14-17.35.14s-17.34-.06-17.34-.14,7.77-.13,17.34-.13S248.5,54.46,248.5,54.53Z"/><path class="cls-8" d="M216.39,52.9a.43.43,0,0,1-.85,0,.43.43,0,0,1,.85,0Z"/><path class="cls-8" d="M217.93,52.9a.43.43,0,0,1-.85,0,.43.43,0,0,1,.85,0Z"/><path class="cls-8" d="M219.47,52.9a.42.42,0,0,1-.84,0,.42.42,0,0,1,.84,0Z"/><path class="cls-8" d="M218.18,67.44a2.33,2.33,0,0,1-1-.77l.59-.61a1.85,1.85,0,0,0,.75.6,2.23,2.23,0,0,0,1,.22,1.69,1.69,0,0,0,1.37-.59,2.53,2.53,0,0,0,.48-1.65v-6h.89v6a3.7,3.7,0,0,1-.34,1.66,2.35,2.35,0,0,1-1,1,3.16,3.16,0,0,1-1.56.36A2.85,2.85,0,0,1,218.18,67.44Z"/><path class="cls-8" d="M226.74,58.64h1.08l3.31,9h-1l-2.86-8-2.86,8h-1Zm-1.78,6h4.72v.82H225Z"/><path class="cls-8" d="M230.88,58.64h.94l2.59,7.72L237,58.64h.94l-3.12,9H234Z"/><path class="cls-8" d="M241.12,58.64h1.08l3.31,9h-1l-2.86-8-2.86,8h-1Zm-1.78,6h4.72v.82h-4.72Z"/><rect class="cls-17" x="46.54" y="239.61" width="216.97" height="29.04"/></svg>