<svg id="Layer_1" data-name="Layer 1" xmlns="http://www.w3.org/2000/svg" xmlns:xlink="http://www.w3.org/1999/xlink" viewBox="0 0 310.06 310.06"><defs><style>.cls-1,.cls-2{opacity:0.25;}.cls-1{fill:url(#linear-gradient);}.cls-2{fill:url(#linear-gradient-2);}.cls-3{fill:none;stroke-miterlimit:10;stroke-width:3px;stroke:url(#linear-gradient-3);}.cls-4{fill:#1c67da;}.cls-5{opacity:0.2;}.cls-6{fill:#a5c3f1;}.cls-7{fill:#79a4e9;}.cls-8{fill:#feaf84;}.cls-9{opacity:0.3;}.cls-10{fill:#b03d44;opacity:0.45;}.cls-11{fill:#0b0b3a;}.cls-12{fill:#787878;}.cls-13{fill:#f78e36;}.cls-14{fill:#ffc328;}.cls-15{fill:#fff;}.cls-16{fill:#3a3a3a;}</style><linearGradient id="linear-gradient" x1="914.41" y1="266.56" x2="914.41" y2="56.96" gradientTransform="translate(-759.38 -8.17)" gradientUnits="userSpaceOnUse"><stop offset="0" stop-color="#d2e1f8"/><stop offset="1" stop-color="#a5c3f1"/></linearGradient><linearGradient id="linear-gradient-2" x1="913.82" y1="268.84" x2="913.82" y2="40.01" xlink:href="#linear-gradient"/><linearGradient id="linear-gradient-3" x1="-5011.43" y1="9805.23" x2="-4701.37" y2="9805.23" gradientTransform="translate(5011.43 -9650.2)" gradientUnits="userSpaceOnUse"><stop offset="0" stop-color="#5e81f4"/><stop offset="1" stop-color="#1c67da"/></linearGradient></defs><title>F1</title><path class="cls-1" d="M283.25,135.81c-15.18-43.3-68.54-26.34-100.92-29.35-34.88-3.24-17.54-25.55-63-42.76C77.58,47.91,13.36,96.69,25.1,171.44c14.5,92.27,154,106.06,211.7,69.7,40.43-25.47,49.1-66.08,49.55-84.72A57.92,57.92,0,0,0,283.25,135.81Z"/><path class="cls-2" d="M250.39,60.4a58,58,0,0,0-17.26-11.68C191,30.57,167.33,81.31,143.18,103.1c-26,23.46-31.83,6.91-76.39,26.43S12.73,239.13,90,257.09c105.55,24.55,167.5-45.36,182.82-105.79C284.71,104.26,263.81,73.36,250.39,60.4Z"/><path class="cls-3" d="M93.62,1.5H308.56a0,0,0,0,1,0,0V216.44a92.12,92.12,0,0,1-92.12,92.12H93.62A92.12,92.12,0,0,1,1.5,216.44V93.62A92.12,92.12,0,0,1,93.62,1.5Z" transform="translate(310.06 0) rotate(90)"/><path class="cls-4" d="M139.46,94.91c-.3.64-.54,1.13-.82,1.67s-.57,1-.85,1.56c-.58,1-1.19,2-1.81,3a62.14,62.14,0,0,1-4.14,5.81,44.3,44.3,0,0,1-5,5.34,27.71,27.71,0,0,1-6.47,4.44l-.19.09a3.55,3.55,0,0,1-.94.3,10.26,10.26,0,0,1-5-.38,14.47,14.47,0,0,1-3.75-1.9,25.15,25.15,0,0,1-5.1-5,43.73,43.73,0,0,1-3.63-5.45,46.42,46.42,0,0,1-2.8-5.81,2.36,2.36,0,0,1,4.06-2.3l.07.09c1.15,1.51,2.39,3.1,3.65,4.56a51.62,51.62,0,0,0,3.92,4.13,20.34,20.34,0,0,0,4.07,3.06,6.15,6.15,0,0,0,1.77.65,2,2,0,0,0,1,0l-1.13.4a21.73,21.73,0,0,0,4.21-3.42,44.16,44.16,0,0,0,3.84-4.54c1.21-1.63,2.36-3.34,3.45-5.1.55-.88,1.09-1.77,1.6-2.68l.75-1.35c.24-.43.51-.93.69-1.29l.05-.09a4.73,4.73,0,0,1,8.47,4.19Z"/><g class="cls-5"><polygon class="cls-6" points="253.86 262.73 198.22 159.89 142.58 262.73 253.86 262.73"/><path class="cls-6" d="M253.86,263.18H142.58a.46.46,0,0,1-.39-.22.48.48,0,0,1,0-.45l55.65-102.83a.47.47,0,0,1,.79,0l55.64,102.83a.43.43,0,0,1,0,.45A.44.44,0,0,1,253.86,263.18Zm-110.52-.91H253.1L198.22,160.85Z"/><polygon class="cls-6" points="253.86 88.75 198.22 191.59 142.58 88.75 253.86 88.75"/><path class="cls-6" d="M198.22,192a.43.43,0,0,1-.39-.24L142.18,89a.48.48,0,0,1,0-.45.46.46,0,0,1,.39-.22H253.86a.44.44,0,0,1,.39.22.43.43,0,0,1,0,.45L198.62,191.8A.45.45,0,0,1,198.22,192ZM143.34,89.21l54.88,101.43L253.1,89.21Z"/></g><path class="cls-7" d="M208.42,149.47l-8.15,15a2.33,2.33,0,0,1-4.1,0l-8.14-15a8.91,8.91,0,0,1,7.84-13.15h4.71A8.91,8.91,0,0,1,208.42,149.47Z"/><path class="cls-7" d="M199.11,236.77l25.26,10.39a2.33,2.33,0,0,1-.89,4.49H173a2.33,2.33,0,0,1-.89-4.49l25.26-10.39A2.27,2.27,0,0,1,199.11,236.77Z"/><circle class="cls-7" cx="198.22" cy="213.74" r="3.24"/><circle class="cls-7" cx="198.22" cy="179.9" r="1.67"/><circle class="cls-7" cx="198.22" cy="196.04" r="1.9"/><path class="cls-7" d="M253.58,257.66H142.87a5.08,5.08,0,0,0-5.07,5.07h0a5.08,5.08,0,0,0,5.07,5.07H253.58a5.08,5.08,0,0,0,5.07-5.07h0A5.08,5.08,0,0,0,253.58,257.66Z"/><path class="cls-7" d="M253.58,268.25H142.87a5.52,5.52,0,1,1,0-11H253.58a5.52,5.52,0,0,1,0,11ZM142.87,258.11a4.62,4.62,0,1,0,0,9.23H253.58a4.62,4.62,0,1,0,0-9.23Z"/><path class="cls-7" d="M253.58,83.68H142.87a5.09,5.09,0,0,0-5.07,5.07h0a5.08,5.08,0,0,0,5.07,5.07H253.58a5.08,5.08,0,0,0,5.07-5.07h0A5.09,5.09,0,0,0,253.58,83.68Z"/><path class="cls-7" d="M253.58,94.27H142.87a5.52,5.52,0,1,1,0-11H253.58a5.52,5.52,0,1,1,0,11ZM142.87,84.14a4.62,4.62,0,1,0,0,9.23H253.58a4.62,4.62,0,1,0,0-9.23Z"/><path class="cls-7" d="M162.85,137.75l-10.35,1.61L143,140.82l-11.38,1.77c-8.49,40.56-11.09,80.86-6.2,120.81l5.67,1.31c-2-28.21,6.06-97.67,12.81-98.72s8.5,64.79,22.79,95.39l5.35-.83C161,227.34,154.8,189.45,162.85,137.75Z"/><path class="cls-7" d="M131.13,265.16H131l-5.68-1.31a.44.44,0,0,1-.34-.38c-4.68-38.22-2.59-78.92,6.2-121a.46.46,0,0,1,.38-.35l31.19-4.84a.46.46,0,0,1,.52.52c-7,44.71-4.12,82.52,9.21,122.59a.47.47,0,0,1,0,.38.47.47,0,0,1-.32.21l-5.35.83a.47.47,0,0,1-.48-.26c-7.77-16.64-11.79-43.28-15-64.68-2.3-15.28-4.29-28.47-6.76-30.29a.66.66,0,0,0-.53-.16c-6.06.94-14.53,68-12.43,98.24a.46.46,0,0,1-.15.37A.48.48,0,0,1,131.13,265.16ZM125.87,263l4.77,1.1c-1.65-26.4,5.73-97.42,13.23-98.58a1.55,1.55,0,0,1,1.2.32c2.78,2,4.6,14.14,7.13,30.89,3.2,21.21,7.18,47.57,14.8,64.12l4.48-.7c-13.17-39.83-16-77.48-9.17-121.89L132,143C123.34,184.71,121.27,225.1,125.87,263Z"/><path class="cls-8" d="M101.09,95.52s.38-6-.8-6.71-1.14,2-2.17,1.84-3.65-3.84-4.73-3.39-1.53,3.32.13,5.23a56.59,56.59,0,0,0,5,4.72Z"/><path class="cls-4" d="M167.3,92.11a4.12,4.12,0,0,0-3.46-4.8h-.07c-2.09-.3-4.71-.62-7.28-.74a129,129,0,0,0-14.72,0c-2.26.21-4.47.59-6.24.93h-.07a6.22,6.22,0,0,0-4.71,4.32c-2.11,7.12-4.63,21.66-1.33,52.52h34.63c.25-3.09-.44-13.15.07-26A204,204,0,0,1,167.3,92.11Z"/><path class="cls-9" d="M167,94c-.72,4.14-1.61,9.77-2.22,15.7,0,0-3.16-6.2-3.73-11.51S165,92.53,167,94Z"/><path class="cls-8" d="M142.47,86.51c4.28-1,5-3.66,4.74-6.57a16.82,16.82,0,0,0-.34-2.17l5.36-4.45,4-3.27c-1.1,4.74-2.33,13.38.88,16.55,0,0-2.66,4.37-10,4C140.89,90.24,142.47,86.51,142.47,86.51Z"/><path class="cls-10" d="M146.87,77.77a16.82,16.82,0,0,1,.34,2.17c2-.4,4.68-2.54,5-4.58a9,9,0,0,0,.06-2Z"/><path class="cls-11" d="M144,55c-2.91,1.71-2.45,6.12-3.24,9.24,1.86.19,4.78-3.11,4.78-3.11l1.74-5Z"/><path class="cls-8" d="M159.5,63.83c-1.86,6.17-2.63,9.86-6.57,12.43a8.38,8.38,0,0,1-13-7.08c0-5.88,3-15,9.77-16.24A8.48,8.48,0,0,1,159.5,63.83Z"/><path class="cls-11" d="M153.69,69.06c4.36-5.07-1.1-7.57,3.37-11.08-5,.23-13.3-.13-14.77-3.57s3.06-8.11,6.85-8.54c4.39-.51,3.42,4.9,3.42,4.9s16.72-1.05,11.41,6.06c4-.24,2.91,6.27-4.08,11.75C158.14,69.21,153.69,69.06,153.69,69.06Z"/><path class="cls-11" d="M163,57s3.44-1,3.32-3.75C167.54,54.07,167.66,56.68,163,57Z"/><path class="cls-8" d="M160.52,70.27a6.93,6.93,0,0,1-4,2.42c-2,.36-2.45-1.48-1.46-3.27.89-1.61,3-3.73,4.77-3.28S161.79,68.7,160.52,70.27Z"/><path class="cls-4" d="M167.64,89.62l.73,1,.65.93c.43.62.83,1.24,1.24,1.86.8,1.25,1.54,2.51,2.27,3.79a82.45,82.45,0,0,1,3.95,7.86c.61,1.33,1.14,2.71,1.7,4.07s1,2.76,1.46,4.17a78,78,0,0,1,2.27,8.59l.07.33a4.56,4.56,0,0,1-.63,3.44,24.57,24.57,0,0,1-4,4.71,20.45,20.45,0,0,1-5.23,3.52,18.79,18.79,0,0,1-6,1.66,18.3,18.3,0,0,1-3,.06c-.51,0-1-.1-1.52-.18-.26,0-.51-.09-.77-.15l-.88-.21a.41.41,0,0,1-.3-.49l1.21-5.07a1.63,1.63,0,0,1,.37-.08l.48-.1c.33-.07.66-.15,1-.24a14.65,14.65,0,0,0,1.9-.65,13.46,13.46,0,0,0,3.31-2,16.56,16.56,0,0,0,4.6-6l-.55,3.78c-.75-2.47-1.55-4.93-2.51-7.34s-2-4.8-3.15-7.14-2.37-4.66-3.69-6.91c-.65-1.13-1.33-2.24-2-3.34l-1-1.62-.52-.79-.47-.7-.18-.26a5.68,5.68,0,0,1,9.27-6.55Z"/><path class="cls-8" d="M156.07,134.52l-1.89,3.08,8.16-.33s2.13-5.49-.78-6.35l-1.13.31A7.44,7.44,0,0,0,156.07,134.52Z"/><polygon class="cls-8" points="154.9 142.33 161.62 141.74 162.34 137.27 154.18 137.6 154.9 142.33"/><path class="cls-12" d="M72.44,35.68,72,34.93a30.4,30.4,0,0,1,4-2l.33.81A28.6,28.6,0,0,0,72.44,35.68Z"/><path class="cls-13" d="M51.78,47.11l-.82-.3a30.36,30.36,0,0,1,10.7-14.24l.52.7A29.44,29.44,0,0,0,51.78,47.11Z"/><circle class="cls-14" cx="79.51" cy="57.1" r="26.89"/><path class="cls-13" d="M79.51,84.45a27.35,27.35,0,1,1,27.34-27.34A27.37,27.37,0,0,1,79.51,84.45Zm0-53.78a26.44,26.44,0,1,0,26.43,26.44A26.47,26.47,0,0,0,79.51,30.67Z"/><path class="cls-13" d="M102,57.1A22.46,22.46,0,1,1,96.1,42s0,0,0,0A22.41,22.41,0,0,1,102,57.1Z"/><path class="cls-15" d="M102,57.1a22.46,22.46,0,0,1-37.7,16.51A22.46,22.46,0,0,1,96.1,42s0,0,0,0A22.41,22.41,0,0,1,102,57.1Z"/><path class="cls-14" d="M79.51,58.42a1.3,1.3,0,0,1-.93-.39l-11-11a1.31,1.31,0,0,1,1.85-1.86l10,10,5.79-5.79a1.31,1.31,0,0,1,1.85,0,1.29,1.29,0,0,1,0,1.85L80.44,58A1.32,1.32,0,0,1,79.51,58.42Z"/><path class="cls-16" d="M164.84,258.41h7.28a.47.47,0,0,1,.48.44l.35,5.75a1.15,1.15,0,0,1-1.13,1.16c-2.54-.05-3.75-.2-6.95-.2-2,0-8.54.21-11.26.21s-2.64-2.69-1.49-2.93c5.16-1.1,9.78-2.6,11.61-4A1.79,1.79,0,0,1,164.84,258.41Z"/><path class="cls-16" d="M124.08,261.82l7.28.13a.46.46,0,0,1,.47.45l.25,5.76a1.14,1.14,0,0,1-1.15,1.13c-2.54-.09-3.74-.26-6.94-.32-2,0-8.34.24-11.06.19s-2.59-2.73-1.43-3c5.18-1,9.61-2.61,11.46-4A1.84,1.84,0,0,1,124.08,261.82Z"/></svg>