<svg xmlns="http://www.w3.org/2000/svg" width="512" height="512"><path d="M397.094 0c-56.287 0-102.079 45.792-102.079 102.079 0 16.939 4.285 33.666 12.426 48.628l-20.403 51.009a8.016 8.016 0 0010.42 10.42l51.009-20.403c14.961 8.14 31.688 12.425 48.627 12.425 56.287 0 102.079-45.792 102.079-102.079S453.381 0 397.094 0zm0 188.125c-15.382 0-30.568-4.204-43.915-12.156a8.018 8.018 0 00-7.081-.557l-37.226 14.891 14.891-37.226a8.015 8.015 0 00-.557-7.081c-7.953-13.347-12.157-28.533-12.157-43.915 0-47.446 38.6-86.046 86.046-86.046s86.046 38.6 86.046 86.046-38.601 86.044-86.047 86.044z" fill="#FFF"/><path d="M298.88 421.596l-54.474-22.697-10.758-43.036a42.18 42.18 0 0019.148-31.642l.497-5.473c20.708-22.914 32.102-52.727 32.102-84.126 0-68.075-53.465-123.457-119.182-123.457S47.031 166.547 47.031 234.622c0 31.408 11.392 61.211 32.102 84.126l.497 5.473a42.181 42.181 0 0019.148 31.642L88.02 398.899l-54.474 22.697a33.582 33.582 0 00-20.719 31.08v34.205c0 13.851 11.268 25.119 25.119 25.119H294.48c13.851 0 25.119-11.268 25.119-25.119v-34.205a33.583 33.583 0 00-20.719-31.08zM73.947 261.701l2.307 25.373c-8.59-15.868-13.189-33.826-13.189-52.453 0-59.234 46.272-107.424 103.148-107.424s103.148 48.19 103.148 107.424c0 18.621-4.599 36.584-13.189 52.454l2.307-25.373c.753-8.275-4.664-15.695-12.877-17.64-25.881-6.133-49.245-19.507-67.564-38.676-3.059-3.2-7.369-5.036-11.825-5.036s-8.766 1.835-11.825 5.036c-18.32 19.168-41.683 32.541-67.564 38.675-8.213 1.947-13.628 9.366-12.877 17.64zM95.6 322.77l-5.684-62.519c-.029-.318.347-.526.606-.587 28.902-6.848 54.995-21.786 75.458-43.199a.324.324 0 01.468 0c20.464 21.412 46.557 36.35 75.458 43.199.26.062.636.268.606.587l-5.683 62.519a26.172 26.172 0 01-13.361 20.521l-44.534 24.741c-7.964 4.424-17.472 4.424-25.436 0l-44.534-24.741A26.161 26.161 0 0195.6 322.77zm20.417 81.833a25.052 25.052 0 0015.457-23.186v-7.278l14.234 7.908c6.42 3.566 13.462 5.35 20.505 5.35s14.085-1.783 20.505-5.35l14.234-7.908v7.278a25.05 25.05 0 0015.457 23.186l14.075 5.865c-14.336 21.215-38.492 34.192-64.271 34.192-25.78 0-49.935-12.976-64.273-34.191l14.077-5.866zm-9.549-13.391l6.797-27.189 2.175 1.208v16.186a9.065 9.065 0 01-5.591 8.388l-3.381 1.407zm110.517-9.795V365.23l2.175-1.208 6.797 27.189-3.381-1.408a9.06 9.06 0 01-5.591-8.386zM64.134 495.967H37.946c-5.01 0-9.086-4.076-9.086-9.086v-34.205c0-2.21.41-4.348 1.169-6.329l27.486 21.989a17.547 17.547 0 016.619 13.772v13.859zm188.125-13.859v13.858H80.167v-13.858c0-10.285-4.606-19.867-12.636-26.293l-25.488-20.39 44.851-18.688c17.035 27.194 47.128 43.955 79.319 43.955s62.284-16.761 79.319-43.955l44.851 18.687-25.488 20.39c-8.03 6.427-12.636 16.009-12.636 26.294zm42.221 13.859h-26.188v-13.858a17.552 17.552 0 016.619-13.773l27.486-21.988a17.665 17.665 0 011.169 6.329v34.205c0 5.009-4.076 9.085-9.086 9.085zM436.306 53.064a8.017 8.017 0 00-11.268 1.252l-68.409 85.511a8.018 8.018 0 0012.519 10.017l68.409-85.511a8.017 8.017 0 00-1.251-11.269zm-73.417-1.757c-13.851 0-25.119 11.268-25.119 25.119s11.268 25.119 25.119 25.119c13.851 0 25.119-11.268 25.119-25.119s-11.268-25.119-25.119-25.119zm0 34.204c-5.01 0-9.086-4.076-9.086-9.086s4.076-9.086 9.086-9.086c5.01 0 9.086 4.076 9.086 9.086s-4.076 9.086-9.086 9.086zm68.41 17.103c-13.851 0-25.119 11.268-25.119 25.119s11.268 25.119 25.119 25.119c13.851 0 25.119-11.268 25.119-25.119 0-13.851-11.269-25.119-25.119-25.119zm0 34.204c-5.01 0-9.086-4.076-9.086-9.086s4.076-9.086 9.086-9.086c5.01 0 9.086 4.076 9.086 9.086s-4.077 9.086-9.086 9.086z" fill="#FFF"/></svg>